<svg id="Layer_1" data-name="Layer 1" xmlns="http://www.w3.org/2000/svg" xmlns:xlink="http://www.w3.org/1999/xlink" viewBox="0 0 750 630.5"><defs><style>.cls-1{fill:none;}.cls-2{clip-path:url(#clip-path);}.cls-3{fill:#00c2fe;}.cls-4{fill:#17c8fe;}.cls-5{fill:#31cefe;}.cls-6{fill:#98e6fe;}.cls-7{fill:#7de0fe;}.cls-8{fill:#48d3fe;}.cls-9{fill:#00bcf8;}.cls-10{fill:#00b4f0;}.cls-11{fill:#00b8f4;}.cls-12{fill:#00ace9;}.cls-13{fill:#00b0ec;}.cls-14{fill:#00a4e1;}.cls-15{fill:#00a0dd;}.cls-16{fill:#0094d1;}.cls-17{fill:#00a8e4;}.cls-18{fill:#009cd8;}.cls-19{fill:#0083c0;}.cls-20{fill:#0098d5;}.cls-21{fill:#0188c5;}.cls-22{fill:#017bb9;}.cls-23{fill:#036aa7;}.cls-24{fill:#0170ae;}.cls-25{fill:#0276b3;}.cls-26{fill:#0174b1;}.cls-27{fill:#0274b1;}.cls-28{fill:#1e87bd;}.cls-29{fill:#00bbf7;}.cls-30{fill:#00aeea;}.cls-31{fill:#009ad7;}.cls-32{fill:#0071af;}.cls-33{fill:#00a4e0;}.cls-34{fill:#008fcc;}.cls-35{fill:#0081bf;}.cls-36{fill:#007dba;}.cls-37{fill:#0078b6;}.cls-38{fill:#009fdc;}.cls-39{fill:#0086c3;}.cls-40{fill:#008ac7;}.cls-41{fill:#008ecb;}.cls-42{fill:#006aa8;}.cls-43{fill:#0065a3;}.cls-44{fill:#005e9d;}.cls-45{fill:#141414;}.cls-46{fill:#120b0b;}.cls-47{fill:#242424;}.cls-48{fill:#292929;}.cls-49{fill:#191919;}.cls-50{fill:#1c1c1c;}.cls-51{fill:#171717;}.cls-52{fill:#0f0f0f;}.cls-53{fill:#1a1a1a;}.cls-54{fill:#1a1615;}.cls-55,.cls-59{fill:#0a0a0a;}.cls-55{stroke:#000;}.cls-55,.cls-57,.cls-58{stroke-miterlimit:10;}.cls-56{fill:#6d6b6c;}.cls-57{fill:#080808;stroke:#140c0c;}.cls-57,.cls-58{stroke-width:2px;}.cls-58{stroke:#120b0b;}.cls-60{fill:#0d0d0d;}.cls-61{fill:#fff;}</style><clipPath id="clip-path"><path class="cls-1" d="M664.4,214a37.69,37.69,0,0,0-12.9-16.8,44.78,44.78,0,0,0-7.4-4.4,8.43,8.43,0,0,1-1.5-.8c-33.6-18-97.5-38.2-117.5-34.3-26,5-65.5,79.7-89,79.7h-121c-23.4,0-63-74.7-89-79.7-19.6-3.8-85.6,16.5-118.7,34.3a3.26,3.26,0,0,1-1.2.6,39,39,0,0,0-8.7,5.3A38.4,38.4,0,0,0,85.6,214C22.9,370-1.7,469.1.1,529.1,3,623.5,76.7,630.5,76.7,630.5c37-8.6,111.6-129.1,168.5-129.1H504.8c57,0,131.5,120.5,168.5,129.1,0,0,73.7-6.9,76.6-101.3C751.8,469.1,727.1,370,664.4,214Z"/></clipPath></defs><title>astonish_base</title><path d="M664.4,214c-6.7-16.7-20.5-20.9-21.8-22-11.7-10.3-2.5-21.2-19.9-30.7-18.3-9.9-72-37-114.2-31.4-9.2,1.2-27.8,17.6-41.2,17.6H282.9c-13.4,0-32-16.4-41.2-17.6-42.2-5.6-95.9,21.5-114.2,31.4-17.5,9.5-8.2,20.4-19.9,30.7-1.3,1.1-15.1,5.3-21.8,22C22.9,370-1.7,469.1.1,529.1,3,623.5,76.7,630.5,76.7,630.5c37-8.6,111.6-129.1,168.5-129.1H504.8c57,0,131.5,120.5,168.5,129.1,0,0,73.7-6.9,76.6-101.3C751.8,469.1,727.1,370,664.4,214Z"/><path class="cls-1" d="M106.2,192.6a6.57,6.57,0,0,1,1.2-.6Z"/><path class="cls-1" d="M642.6,192a15.48,15.48,0,0,0,1.5.8A10.93,10.93,0,0,0,642.6,192Z"/><g class="cls-2"><path class="cls-3" d="M818.77,327.7Q793.11,222.27,697.14,171.23C670.32,157,641.53,149,611.26,146.39c-2.25-.2-4.63.19-6.79-.83h-1.88a8.16,8.16,0,0,1-4.22,0H580.58a4.74,4.74,0,0,1-3.28,0h-.94a1,1,0,0,1-.63.24,165.69,165.69,0,0,0-29.46,3.29,227.74,227.74,0,0,0-54.45,17.5A235,235,0,0,0,374,288.44,231,231,0,0,0,357,354.35c-.38,3.62-.09,7.29-.74,10.88v2.35c.51.94.12,2,.24,2.94v2.3c-.14,1.52.3,3.09-.24,4.59v4.69c.53,1.52.1,3.08.24,4.61V389c-.12,1,.27,2-.24,2.92v2.35c.77.36.46,1.08.5,1.64a239.47,239.47,0,0,0,6.69,41.74A234.38,234.38,0,0,0,579.53,613.83a230.66,230.66,0,0,0,56.34-4.27c37.45-7.5,71.33-22.91,100.92-47.07,52.46-42.86,81.53-98.26,87.21-165.75A214.66,214.66,0,0,0,818.77,327.7Zm-19.71,55.24a95.11,95.11,0,0,0-.5,10.54,7,7,0,0,1-.16,1.22,11.1,11.1,0,0,0-.3,3.93,154.12,154.12,0,0,1-2.75,18.28c-.31,1.52-.8,3-1,4.54-.54.86-.15,2-.9,2.81a207.76,207.76,0,0,1-146.8,155.65,195.72,195.72,0,0,1-40.45,7,215.41,215.41,0,0,1-34.83-.23q-58.9-5.62-106.27-41.19a207.14,207.14,0,0,1-55-62.41,14.73,14.73,0,0,0-.91-1.32c-2.08-1.84-2.71-4.56-4.18-6.77-.93-1.9-1.75-3.85-2.78-5.7-.89-1.67-1.47-3.48-2.42-5.12-1.06-2.14-1.65-4.48-2.76-6.61-.82-2-1.53-4.11-2.34-6.15-.49-1.78-1.28-3.46-1.9-5.2-.72-2-1.16-4.08-1.88-6.07q-1-3.27-1.87-6.57c-.44-1.86-.89-3.73-1.4-5.58a29.05,29.05,0,0,0-1.17-4.2c-.67-3.11-1-6.27-1.67-9.38-.34-2.12-.63-4.25-1-6.37a7.35,7.35,0,0,1-.12-1.14,8,8,0,0,0-.34-2.61c-.32-1.54,0-3.17-.51-4.69a110,110,0,0,1-.61-12.57,8,8,0,0,0-.28-3,10.54,10.54,0,0,1-.19-2.57c-.3-4.45.93-8.84.46-13.29-.18-2.25.83-4.4.47-6.65a153.41,153.41,0,0,1,2.74-18.85,17.49,17.49,0,0,0,.53-2.59,7.41,7.41,0,0,0,.52-2.46c.54-.54.2-1.4.68-2a197,197,0,0,1,7.15-25.12Q428,220.15,517.87,185a191.36,191.36,0,0,1,56.86-12.37c51.52-3.47,98.15,9.9,139.72,40.48a205.29,205.29,0,0,1,55.28,61.55c.43.73.91,1.43,1.37,2.14,1.8,1.63,2.58,3.91,3.75,5.93,1,2.23,2.18,4.4,3.3,6.59,1,2,1.89,4.05,2.82,6.09.91,1.82,1.55,3.76,2.37,5.61.76,1.53,1.24,3.17,1.89,4.73.77,2.05,1.52,4.11,2.32,6.15.59,1.9,1.25,3.77,1.87,5.66.49,2.21,1.37,4.31,1.89,6.52.37,1.76,1,3.47,1.42,5.22.36,2.07.89,4.1,1.43,6.13.65,3.28,1.31,6.54,1.89,9.83s.89,6.57,1.43,9.85.5,6.58.95,9.84a53.24,53.24,0,0,1,.16,7.68,10.07,10.07,0,0,0,.3,3A48.85,48.85,0,0,1,799.06,382.94Z"/><path class="cls-4" d="M356.68,372.73c-.2,1.55.48,3.2-.46,4.68v-4.68C356.37,372.52,356.53,372.51,356.68,372.73Z"/><path class="cls-4" d="M356.22,382.1c.94,1.48.26,3.13.46,4.69-.15.21-.31.2-.46,0Z"/><path class="cls-5" d="M602.59,145.56a4.2,4.2,0,0,1-4.21,0Z"/><path class="cls-6" d="M580.58,145.56a2.72,2.72,0,0,1-3.28,0Z"/><path class="cls-7" d="M356.22,367.58c.92.81.28,1.87.45,2.8-.15.21-.3.23-.45,0Z"/><path class="cls-7" d="M356.67,389.14c-.17.93.47,2-.45,2.79v-2.81C356.37,388.91,356.52,388.92,356.67,389.14Z"/><path class="cls-8" d="M356.22,370.39h.45c0,.78,0,1.56,0,2.35h-.46Z"/><path class="cls-8" d="M356.67,389.14l-.45,0v-2.34h.46C356.68,387.57,356.67,388.35,356.67,389.14Z"/><path class="cls-9" d="M405.42,474.8a54.66,54.66,0,0,1,3.76,7c-.64.84-1.56.53-2.38.53-5.67,0-11.34-.05-17,.05-1.8,0-2.93-.29-3.37-2.25a44.7,44.7,0,0,0-1.64-4.81,2.57,2.57,0,0,1,1.71-.68C392.8,474.62,399.11,474.31,405.42,474.8Z"/><path class="cls-10" d="M400.27,464.06a23,23,0,0,1,2.34,5.09c.49,1.11-.34,1.52-1.08,1.55a107.7,107.7,0,0,1-17.32-.13,2.21,2.21,0,0,1-.82-.42L382,464.06a3.64,3.64,0,0,1,2.62-.73c4.27,0,8.53,0,12.79,0A5.29,5.29,0,0,1,400.27,464.06Z"/><path class="cls-11" d="M383.39,470.15c5.66,0,11.33,0,17,0,.83,0,2,.44,2.22-1a33.42,33.42,0,0,1,2.81,5.65c-.67.81-1.59.49-2.41.49-6.07,0-12.15,0-18.22,0A18.89,18.89,0,0,0,383.39,470.15Z"/><path class="cls-12" d="M395.12,451.36a30.72,30.72,0,0,1,2.35,6.08c.08,1.16-.76,1.55-1.63,1.59a103.88,103.88,0,0,1-13.78,0,1.89,1.89,0,0,1-1-.54c-.87-1.94-1-4.06-1.39-6.1,1-.85,2.18-.68,3.34-.71C387,451.54,391.08,451.85,395.12,451.36Z"/><path class="cls-13" d="M381,458.45h13.81c1,0,2.09.23,2.62-1a44.23,44.23,0,0,1,2.8,6.62H382A23.68,23.68,0,0,1,381,458.45Z"/><path class="cls-14" d="M391.36,440.14a28.76,28.76,0,0,1,1.93,6c0,1.55-1.3,1.62-2.31,1.69-3.33.22-6.67.13-10,.06a2.12,2.12,0,0,1-2.26-1.62c0-1.73-.76-3.39-.48-5.15.91-.8,2-.7,3.11-.72A93.06,93.06,0,0,0,391.36,440.14Z"/><path class="cls-15" d="M391.36,440.14c-.2,1.29-1.22,1-2,1-3.71,0-7.42,0-11.13,0-.3-2.5-.61-5-.91-7.49a21.45,21.45,0,0,0,12.17-.06A33.49,33.49,0,0,1,391.36,440.14Z"/><path class="cls-16" d="M385.33,414.27c1,3.1,1.07,6.36,1.79,9.51a15.19,15.19,0,0,1-10.28,0c-.75-6-.41-12.12-.45-18.19,0-.82-.27-1.73.42-2.45,1.14,1.38.62,3,.69,4.55,0,1.87.06,3.74,0,5.61s.71,2.41,2.39,2.31C381.8,415.5,383.84,416.05,385.33,414.27Z"/><path class="cls-17" d="M378.71,446.27a2.56,2.56,0,0,0,2,1c3.39-.06,6.78,0,10.18,0a2.66,2.66,0,0,0,2.42-1.06,21,21,0,0,1,1.83,5.22c-.2,1.28-1.2,1-2,1-4.49,0-9,0-13.47,0Q379.18,449.32,378.71,446.27Z"/><path class="cls-18" d="M389.49,433.57c-.1,1.23-.91,1.47-1.95,1.46-2.72,0-5.44-.1-8.14,0-1.24.06-1.57-.72-2.08-1.44.17-2.37-.78-4.65-.47-7,3.34,3.69,7.33,2.16,11.23,1.38A23,23,0,0,1,389.49,433.57Z"/><path class="cls-19" d="M382.52,383.82l.9,16c-.07,1.26-1.13,1.15-1.88,1.18-1.59.06-3.26.46-4.69-.66a63.21,63.21,0,0,1,.89-12.21,1.35,1.35,0,0,1,.53.74,1.75,1.75,0,0,0,2.31,1.33c1.26-.26,1.1-1.29,1.2-2.2C381.94,386.61,381.34,385.06,382.52,383.82Z"/><path class="cls-20" d="M388.08,428c-.1,1.24-.93,1.44-2,1.43a43.57,43.57,0,0,0-4.85,0c-2.3.22-4.2.07-4.42-2.84,0-.94,0-1.88,0-2.82h10.28A12.47,12.47,0,0,1,388.08,428Z"/><path class="cls-21" d="M376.85,400.36c2.18-.26,4.45.59,6.57-.52.63,1.46.37,3,.48,4.55.38.81,0,1.72.35,2.52l.09.95a8.74,8.74,0,0,1-7.51,0c0-1.58,0-3.15,0-4.72C376.82,402.21,376.84,401.29,376.85,400.36Z"/><path class="cls-22" d="M382.52,383.82c0,1.64-.16,3.29,0,4.91s-.38,2.41-2.2,2.31c-1.56-.08-2.88-.05-2.51-2.19a3.28,3.28,0,0,0,0-.7,36.65,36.65,0,0,1,.93-8.92c.74,1.65,2.53,1.62,3.81,2.4A4.17,4.17,0,0,1,382.52,383.82Z"/><path class="cls-23" d="M385.79,342.52l-2.49,19a4.57,4.57,0,0,0-.16,1.6c-.07.78.33,2-1,1.93s-1.55-1-1.14-2.18a167.42,167.42,0,0,1,4.07-20.31c.1-.37.17-.76.25-1.14C386.33,341.44,385.79,342.09,385.79,342.52Z"/><path class="cls-24" d="M381,362.85c.05.85,0,1.87,1.21,1.79,1-.07.61-1,.67-1.66s0-1.07.4-1.48c.22,2.22-.34,4.37-.46,6.56a19.39,19.39,0,0,0-.15,4.37c-.05,2.88-.81,3.36-3.5,2.17A65.74,65.74,0,0,1,381,362.85Z"/><path class="cls-25" d="M379.19,374.6c3.25,0,3.21,0,3.27-3.18,0-1.12-.38-2.31.38-3.36l-.36,13.57c-1.68-.13-3.93.63-3.81-2.4A12.52,12.52,0,0,1,379.19,374.6Z"/><path class="cls-26" d="M385.79,342.52a1.4,1.4,0,0,0-.45-1.12c.16-.63.31-1.26.47-1.9.47,0,.66.13.45.6C386.16,340.92,386.36,341.8,385.79,342.52Z"/><path class="cls-27" d="M386.26,340.1l-.45-.6c.15-.63.31-1.26.47-1.9a.3.3,0,0,1,.5,0C386.6,338.45,386.83,339.36,386.26,340.1Z"/><path class="cls-28" d="M386.78,337.63l-.5,0c.35-.61.17-1.47.9-1.9C387.1,336.35,387.32,337.07,386.78,337.63Z"/><path class="cls-3" d="M597.75,227.49c2.11,3.91,4,7.46,6,11q9.87,18.19,19.76,36.36a3.35,3.35,0,0,1,0,3.65Q567.58,381.59,511.73,484.7a3,3,0,0,1-3.14,1.72q-24.24-.06-48.47,0c-2.71,0-2.72,0-1.41-2.43L580.62,259.07C586.26,248.66,591.91,238.25,597.75,227.49Z"/><path class="cls-3" d="M652.62,423.29c-1,.34-1.2,1.38-1.63,2.17q-15.91,29.28-31.73,58.6a3.83,3.83,0,0,1-3.94,2.38c-15.76-.09-31.53-.07-47.3,0-1.79,0-2.16-.26-1.22-2Q609.27,406.25,651.65,328c.18-.34.4-.65.78-1.26,8.71,16.06,17.3,31.9,25.9,47.74-1.12,3.5-3.28,6.48-4.87,9.74-.51,1-1.13,2-1.63,3.09-1.12,2-2,4.18-3.29,6.15-1.32,2.31-2.32,4.79-3.75,7-1.79,3.6-3.78,7.09-5.59,10.67-1,2.06-2.32,3.95-3.28,6s-2,3.94-3.07,5.85A2.39,2.39,0,0,1,652.62,423.29Z"/><path class="cls-3" d="M699.1,413c4.28,7.22,8.06,14.7,12.06,22.08l26.6,49.09c.33.61.63,1.24.94,1.86-.6.7-1.35.37-2,.38-15.91,0-31.82,0-47.72.05a3.15,3.15,0,0,1-3.25-1.94c-6.53-12.12-13.14-24.19-19.72-36.28a15.07,15.07,0,0,1-.65-1.48c.16-.92.89-1.43,1.49-2q15.09-15.12,30.22-30.22A4.07,4.07,0,0,1,699.1,413Z"/><path class="cls-29" d="M699.1,413a2.94,2.94,0,0,1-.37.59q-16.47,16.49-33,32.94a2,2,0,0,1-.4.23,12.06,12.06,0,0,1-1.82-3.27c3.77-3.14,7.05-6.79,10.53-10.23,7.06-7,14.07-14.08,21.13-21.09.72-.72,1.29-1.85,2.65-1.55A6,6,0,0,1,699.1,413Z"/><path class="cls-10" d="M697.86,410.59a6.66,6.66,0,0,0-2.12,1.79l-29.51,29.49c-.75.75-1.37,1.76-2.68,1.59l-1-1.89c.15-.92.89-1.43,1.48-2q15.11-15.12,30.23-30.22a4.09,4.09,0,0,1,2-1.51C697.2,408.52,697.15,409.77,697.86,410.59Z"/><path class="cls-30" d="M696.29,407.81a13.59,13.59,0,0,1-1,1.26q-15.81,15.82-31.63,31.63a10,10,0,0,1-1.08.87l-1.32-2.33a12,12,0,0,1,2.22-2.39q14.37-14.4,28.77-28.77c.94-.94,1.72-2,2.61-3A6.83,6.83,0,0,1,696.29,407.81Z"/><path class="cls-16" d="M689.72,395.66a6.92,6.92,0,0,1,1.45,2.71c.28,1-.5,1.57-1.08,2.16C679.76,411,669.29,421.23,659,431.7c-.41.43-.79,1.07-1.54.51a8.79,8.79,0,0,1-1.49-2.8,20.59,20.59,0,0,0,2.84-2.43q13.48-13.51,27-27A39.19,39.19,0,0,0,689.72,395.66Z"/><path class="cls-31" d="M657.47,432.21c1.23-.46,1.78-1.66,2.64-2.51q14.65-14.58,29.25-29.22c.65-.66,1.21-1.4,1.81-2.11a2.56,2.56,0,0,1,.87,1.56c.65,1,.12,1.79-.56,2.47q-15.4,15.5-30.89,30.88c-.63.63-1.35,1.51-2.31.36Z"/><path class="cls-32" d="M658.75,411.14a101.36,101.36,0,0,1,5.67-10.77c.88-.25,1.37-1,2-1.59,4.75-4.73,9.47-9.48,14.22-14.2.65-.65,1.18-1.47,2.16-1.71a5.73,5.73,0,0,1,1.33,2.47c.59,1.38-.4,2.26-1.15,3Q672.3,399.31,661.37,410C660.7,410.62,659.94,411.45,658.75,411.14Z"/><path class="cls-33" d="M693,401.73a3,3,0,0,1,1,1.8c.51,1.1-.23,1.77-.88,2.43q-15.3,15.35-30.66,30.64c-.56.56-1.13,1.42-2.17.77a4,4,0,0,1-1-1.88c6.56-6.77,13.31-13.37,20-20.05C683.82,410.86,688.36,406.24,693,401.73Z"/><path class="cls-34" d="M689.72,395.66c.15,1.08-.53,1.72-1.2,2.4L657.9,428.65c-.51.52-.94,1.35-1.92.76a3.54,3.54,0,0,1-1-1.86,8.14,8.14,0,0,0,1.86-1.39q14.92-15,29.92-29.93c.71-.71,1.19-1.65,2.11-2.15A2.71,2.71,0,0,1,689.72,395.66Z"/><path class="cls-17" d="M660.26,437.37c1,0,1.46-.83,2-1.42q15.09-15.06,30.16-30.16c.65-.64,1.48-1.19,1.5-2.26a2.65,2.65,0,0,1,.88,1.57,2.5,2.5,0,0,1-1.06,2.2l-31,31c-.44.44-.84.94-1.54.95Z"/><path class="cls-35" d="M686.43,389.6a5.45,5.45,0,0,1,1,2.3,4.57,4.57,0,0,1-1.53,2l-28.61,28.61a10.84,10.84,0,0,1-2.34,1.93c-.64.35-1.29.67-1.79-.21l-.57-1,.14,0a7.34,7.34,0,0,1,2-2.54Q669.5,406,684.23,391.26C684.88,390.61,685.43,389.8,686.43,389.6Z"/><path class="cls-36" d="M686.43,389.6c-.56.64-1.09,1.31-1.69,1.91q-15,15-30.07,30.07c-.6.59-1.27,1.11-1.91,1.67.12-2.38,1.67-4.1,2.75-6,8.92-9,17.92-18,26.9-26.93.91-.92,1.71-2.06,3.16-2.24A2.54,2.54,0,0,1,686.43,389.6Z"/><path class="cls-37" d="M685.57,388q-14.07,14-28.16,28c-.51.51-.81,1.54-1.9,1.21.63-2.27,2.06-4.1,3.24-6.07a16.88,16.88,0,0,0,3.8-3q9.56-9.6,19.14-19.15a7.73,7.73,0,0,0,2.41-3.61A6.86,6.86,0,0,1,685.57,388Z"/><path class="cls-38" d="M693,401.73c0,1-.77,1.49-1.36,2.09l-30.29,30.29c-.6.59-1.08,1.38-2.07,1.38a3.41,3.41,0,0,1-1-1.85c1,.54,1.41-.21,1.94-.74L691,402.14a2.51,2.51,0,0,0,1-2.21A3.25,3.25,0,0,1,693,401.73Z"/><path class="cls-39" d="M653.19,424.25c1.62.29,2.49-.87,3.44-1.82q14.37-14.34,28.73-28.71c.65-.65,1.39-1.22,2.1-1.82l1,1.38a4.29,4.29,0,0,1-1.37,1.86q-15.13,15.15-30.3,30.27c-.62.62-1.12,1.61-2.3,1.24A6.11,6.11,0,0,1,653.19,424.25Z"/><path class="cls-40" d="M654.46,426.65c.71-.61,1.46-1.17,2.11-1.82Q671.45,410,686.33,395.1c.65-.65,1.4-1.21,2.1-1.82l.44.8a3.36,3.36,0,0,1-1.32,2.13q-15.22,15.23-30.46,30.44c-.56.57-1,1.49-2.11.9C654.81,427.25,654.64,427,654.46,426.65Z"/><path class="cls-41" d="M376.83,407.86h7.51a30.77,30.77,0,0,1,1,6.41c.08,1.4-.38,2.17-2,2.05a42.33,42.33,0,0,0-4.91,0c-1.24.05-1.64-.49-1.61-1.67C376.87,412.37,376.83,410.11,376.83,407.86Z"/><path class="cls-42" d="M682.77,382.87c-2.55,3.25-5.72,5.92-8.59,8.88s-5.59,5.65-8.44,8.42c-.26.25-.68,1.6-1.32.2a54.41,54.41,0,0,1,3.75-7c2.11-1.25,3.56-3.22,5.26-4.91,2.69-2.68,5.58-5.19,7.87-8.26A7,7,0,0,1,682.77,382.87Z"/><path class="cls-43" d="M681.3,380.17a2.71,2.71,0,0,1-1,2.25c-3.61,3.57-7.17,7.17-10.8,10.72-.25.26-.68,1.61-1.31.2a36.17,36.17,0,0,1,3.26-6.11c3-2.94,5.83-6,8.91-8.86A3.25,3.25,0,0,1,681.3,380.17Z"/><path class="cls-44" d="M680.34,378.37c-1.37,2.9-4.13,4.55-6.2,6.82-.74.81-1.24,2.13-2.71,2,2.16-4.32,4.14-8.74,6.9-12.73Z"/><path class="cls-41" d="M384.25,406.91c-.69-.76-.31-1.67-.35-2.52A3.93,3.93,0,0,1,384.25,406.91Z"/></g><g id="Dpad"><path class="cls-45" d="M277.7,452.7c-7.1,0-12.7-1.3-13-3.1V415.1a.47.47,0,0,0-.5-.5H229.8c-1.8,0-3.2-5.7-3.2-13.1s1.4-13.1,3.2-13.1h34.4a.47.47,0,0,0,.5-.5V353.4l.1-.2.1-.1c.5-.8,2.1-1.5,4.5-2,.3-.1.6-.1.9-.2a3.75,3.75,0,0,1,1-.1h.2c.3,0,.6-.1.9-.1s.7-.1,1-.1.7-.1,1-.1l2.4-.1h1c7.3,0,13.1,1.4,13.1,3.2V388a.47.47,0,0,0,.5.5h34.4c1.8,0,3.2,5.7,3.2,13.1s-1.4,13.1-3.2,13.1H291.4a.47.47,0,0,0-.5.5v34.6C290.4,451.4,284.8,452.7,277.7,452.7Z"/><path class="cls-46" d="M277.7,350.8c8.1,0,12.6,1.6,12.6,2.7h0v34.4a.94.94,0,0,0,1,1h34.4c1.1,0,2.7,4.8,2.7,12.6s-1.6,12.6-2.7,12.6H291.3a.94.94,0,0,0-1,1v34.5c-.2,1.1-4.7,2.7-12.6,2.7s-12.4-1.5-12.6-2.7V415a.94.94,0,0,0-1-1H229.7c-1.1,0-2.7-4.8-2.7-12.6s1.6-12.6,2.7-12.6h34.4a.94.94,0,0,0,1-1V353.4h0v-.2c.2-.3.9-1.1,4.2-1.8h.1c.3-.1.6-.1.8-.2h.1a2.49,2.49,0,0,1,.8-.1h.2c.3,0,.6-.1.9-.1h0c.3,0,.7-.1,1-.1h0c.3,0,.6-.1,1-.1h3.5m0-1h-3.5a3.4,3.4,0,0,0-1,.1h0c-.3,0-.7.1-1,.1h0c-.3,0-.7.1-1,.1h-.1c-.3,0-.6.1-.9.1h-.1c-.3.1-.6.1-.9.2h0c-2.4.5-4.3,1.2-4.9,2.2a.35.35,0,0,0-.1.2h0v.2h0v34.7H229.8c-5,0-5,27.1,0,27.1h34.4v34.4h0v.2c.4,2.3,7,3.5,13.5,3.5s13.1-1.2,13.5-3.5V414.8h34.4c5,0,5-27.1,0-27.1H291.2V353.3h0c0-2.3-6.8-3.5-13.5-3.5Z"/><path class="cls-47" d="M264.1,387.9l-3.6-3.6H229.7a5.23,5.23,0,0,0-2.8.8l2.8,2.8Z"/><path class="cls-48" d="M229.7,387.9h0l-2.8-2.8c-1.4.9-2.7,2.7-3.5,6.1a43.46,43.46,0,0,0-1,10.2,50.29,50.29,0,0,0,1,10.2c.8,3.4,2.2,5.2,3.5,6.1l2.8-2.8C224.7,415,224.7,387.9,229.7,387.9Z"/><path class="cls-47" d="M269.2,350.5h0c.3-.1.6-.1.9-.2h.1a2.77,2.77,0,0,1,.9-.1h.1c.3,0,.7-.1,1-.1h0c.3,0,.7-.1,1-.1h0c.3,0,.7-.1,1-.1h3.5c6.8,0,13.6,1.2,13.6,3.7l2.8-2.8c-.9-1.4-2.7-2.7-6.1-3.5a43.46,43.46,0,0,0-10.2-1,49.55,49.55,0,0,0-10.2,1c-2.9.7-4.7,1.8-5.7,3l2.6,2.6C265,351.7,266.8,351,269.2,350.5Z"/><path class="cls-49" d="M325.7,387.9l2.8-2.8a5,5,0,0,0-2.8-.8H294.9l-3.6,3.6Z"/><path class="cls-50" d="M291.2,353.5h0v34.4l3.6-3.6h0V353.5a5.23,5.23,0,0,0-.8-2.8l-2.8,2.8Z"/><path class="cls-48" d="M264.1,353.5v-.3h0V353h0c0-.1.1-.1.1-.2l-2.6-2.6a4.82,4.82,0,0,0-1.3,3.3v30.8l3.6,3.6C264.1,374.1,264.1,361.3,264.1,353.5Z"/><path class="cls-51" d="M325.7,415H291.3l3.6,3.6h32.3l.3-.3a4.05,4.05,0,0,0,.9-.5l-2.7-2.8Z"/><path class="cls-52" d="M291.2,449.5l2.8,2.8a5,5,0,0,0,.8-2.8V418.7l-3.6-3.6Z"/><path class="cls-52" d="M332,391.3c-.8-3.4-2.2-5.2-3.6-6.1l-2.8,2.8c5,0,5,27.1,0,27.1l2.8,2.8c1.4-.9,2.7-2.7,3.5-6.1a43.46,43.46,0,0,0,1-10.2A44.29,44.29,0,0,0,332,391.3Z"/><path class="cls-51" d="M291.2,449.7c-.4,2.3-7,3.5-13.5,3.5s-13.1-1.2-13.5-3.5v-.2l-2.8,2.8c.9,1.4,2.7,2.7,6.2,3.5a42.89,42.89,0,0,0,10.2,1,50.29,50.29,0,0,0,10.2-1c3.4-.8,5.2-2.2,6.1-3.5l-2.8-2.8C291.2,449.5,291.2,449.6,291.2,449.7Z"/><path class="cls-50" d="M264.1,449.5h0V415.1l-3.6,3.6v31.6l.1.2a4.72,4.72,0,0,0,.7,1.7l2.8-2.7Z"/><path class="cls-53" d="M229.7,415l-2.8,2.8a5.23,5.23,0,0,0,2.8.8h30.8l3.6-3.6Z"/></g><g id="Menu_Key" data-name="Menu Key"><path class="cls-54" d="M448.9,280.4a18.8,18.8,0,1,1-18.8-18.8A18.78,18.78,0,0,1,448.9,280.4Z"/><path class="cls-55" d="M446.2,280.4a16.1,16.1,0,1,1-16.1-16.1A16.09,16.09,0,0,1,446.2,280.4Z"/><rect class="cls-56" x="422.9" y="275.7" width="14.4" height="1.6"/><rect class="cls-56" x="422.9" y="279.7" width="14.4" height="1.6"/><rect class="cls-56" x="422.9" y="283.5" width="14.4" height="1.5"/></g><g id="Switcher_Key" data-name="Switcher Key"><path class="cls-54" d="M340.9,280.4a18.8,18.8,0,1,1-18.8-18.8A18.78,18.78,0,0,1,340.9,280.4Z"/><path class="cls-55" d="M338.2,280.4a16.1,16.1,0,1,1-16.1-16.1A16.09,16.09,0,0,1,338.2,280.4Z"/><polygon class="cls-56" points="319.6 280.3 316.6 280.3 316.6 276.5 322 276.5 322 277.8 323.8 277.8 323.8 274.7 315 274.7 315 282.1 319.6 282.1 319.6 280.3"/><path class="cls-56" d="M320.4,278.4V286h9v-7.6Zm7.1,5.8H322v-3.9h5.5Z"/></g><g id="Left_Stick" data-name="Left Stick"><path class="cls-57" d="M185.5,351.5a67.7,67.7,0,1,1,67.7-67.7A67.82,67.82,0,0,1,185.5,351.5Z"/><path class="cls-58" d="M241.6,279.9a56.1,56.1,0,1,1-56.1-56.1A56.08,56.08,0,0,1,241.6,279.9Z"/></g><g id="Right_Stick" data-name="Right Stick"><path class="cls-57" d="M473,465.5a67.7,67.7,0,1,1,67.7-67.7A67.82,67.82,0,0,1,473,465.5Z"/><path class="cls-58" d="M529.2,393.8a56.1,56.1,0,1,1-56.1-56.1A56.08,56.08,0,0,1,529.2,393.8Z"/></g><g id="Button_Base" data-name="Button Base"><g id="A"><path class="cls-59" d="M566.8,355.3A25.2,25.2,0,1,1,592,330.1,25.22,25.22,0,0,1,566.8,355.3Z"/><path class="cls-54" d="M566.8,306.4a23.7,23.7,0,1,1-23.7,23.7,23.69,23.69,0,0,1,23.7-23.7m0-3a26.7,26.7,0,1,0,26.7,26.7,26.76,26.76,0,0,0-26.7-26.7Z"/></g><g id="Y"><path class="cls-59" d="M566.8,254.2A25.2,25.2,0,1,1,592,229,25.22,25.22,0,0,1,566.8,254.2Z"/><path class="cls-54" d="M566.8,205.3A23.7,23.7,0,1,1,543.1,229a23.69,23.69,0,0,1,23.7-23.7m0-3A26.7,26.7,0,1,0,593.5,229a26.76,26.76,0,0,0-26.7-26.7Z"/></g><g id="B"><path class="cls-59" d="M617.3,304.7a25.2,25.2,0,1,1,25.2-25.2A25.22,25.22,0,0,1,617.3,304.7Z"/><path class="cls-54" d="M617.3,255.8a23.7,23.7,0,1,1-23.7,23.7,23.69,23.69,0,0,1,23.7-23.7m0-3A26.7,26.7,0,1,0,644,279.5a26.76,26.76,0,0,0-26.7-26.7Z"/></g><g id="X"><path class="cls-59" d="M516.2,304.7a25.2,25.2,0,1,1,25.2-25.2A25.22,25.22,0,0,1,516.2,304.7Z"/><path class="cls-54" d="M516.2,255.8a23.7,23.7,0,1,1-23.7,23.7,23.69,23.69,0,0,1,23.7-23.7m0-3a26.7,26.7,0,1,0,26.7,26.7,26.76,26.76,0,0,0-26.7-26.7Z"/></g></g><path class="cls-53" d="M375.6,156.5s-88.9-1.1-100.5-3L258.7,184c20.2,23.3,41.6,53.3,56.4,53.3h121c14.9,0,36.2-30,56.5-53.3l-16.4-30.5C464.6,155.4,375.6,156.5,375.6,156.5Z"/><path class="cls-60" d="M476.2,153.5l-3.6-6.8a21.08,21.08,0,0,1-5.4.7H282.8a21.85,21.85,0,0,1-4.3-.5l-3.5,6.5c11.6,1.9,100.5,3,100.5,3S464.6,155.4,476.2,153.5Z"/><g id="RB"><path class="cls-53" d="M642.5,192c-9-7.9-5.6-16.2-11.5-23.8.2.3.5.7.7,1,0,0-96.5-42.1-120.8-34.5-15.6,4.9-27.2,15.3-32.8,18.2L494,182.5c11.2-12.7,21.9-23,31.1-24.8,20-3.9,83.9,16.3,117.4,34.3Z"/><path class="cls-60" d="M511,134.6c24.3-7.6,120.8,34.5,120.8,34.5-.2-.3-.5-.7-.7-1l-.1-.1a1.38,1.38,0,0,1-.3-.4c0-.1-.1-.1-.1-.2l-.3-.3-.2-.2-.3-.3-.2-.2-.3-.3-.2-.2-.3-.3c-.1-.1-.2-.1-.2-.2l-.3-.3-.2-.2-.3-.3c-.1-.1-.2-.1-.3-.2l-.3-.3c-.1-.1-.2-.1-.3-.2a1.38,1.38,0,0,0-.4-.3c-.1-.1-.2-.1-.3-.2s-.3-.2-.4-.3-.2-.1-.3-.2-.3-.2-.4-.3-.2-.1-.3-.2-.3-.2-.5-.3-.2-.1-.3-.2a2.19,2.19,0,0,1-.5-.3c-.1-.1-.2-.1-.3-.2a5.58,5.58,0,0,1-.8-.5c-18.3-9.9-72-37-114.2-31.4-7.6,1-21.6,12.3-33.8,16.3l3.6,6.7C483.7,149.9,495.4,139.5,511,134.6Z"/></g><g id="LB"><path class="cls-60" d="M241.6,129.9c-42.2-5.6-95.9,21.5-114.2,31.4a5.58,5.58,0,0,0-.8.5c-.1.1-.2.1-.3.2a2.19,2.19,0,0,0-.5.3c-.1.1-.2.1-.3.2a2.19,2.19,0,0,1-.5.3c-.1,0-.2.1-.3.2s-.3.2-.4.3-.2.1-.3.2-.3.2-.4.3-.2.1-.3.2-.3.2-.4.3-.2.1-.2.2-.3.2-.4.3l-.2.2-.3.3-.2.2-.3.3-.2.2-.3.3c-.1,0-.1.1-.2.2l-.3.3c0,.1-.1.1-.1.2l-.3.3-.1.1c-.1.1-.2.3-.3.4l-.1.1c-.1.1-.2.3-.3.4a.1.1,0,0,1-.1.1c-.1.1-.2.3-.3.4h0c-.1.2-.2.3-.3.5,0,0,97.7-42,122-34.4,15.5,4.9,27.2,15.3,32.8,18.2l3.4-6.3C264.1,142.9,249.5,130.9,241.6,129.9Z"/><path class="cls-53" d="M273.6,153.1c.2.1.3.1.5.2C273.9,153.2,273.7,153.2,273.6,153.1Z"/><path class="cls-53" d="M273.1,152.8c-5.6-2.9-17.3-13.4-32.8-18.2C216.1,127,119,168.7,118.3,169c-5,7.4-2.2,15.3-10.8,23h-.1c33.2-17.9,99.2-38.1,118.7-34.3,9.1,1.8,19.9,12.1,31.1,24.8l15.9-29.7Z"/><path d="M273.1,152.8c.2.1.3.2.5.2C273.4,153,273.3,152.9,273.1,152.8Z"/><path d="M258,183.2a5.72,5.72,0,0,0,.7.8l16.4-30.5,3.5-6.5c-.3-.1-.7-.1-1-.2s-.7-.2-1-.3l-3.4,6.3-15.9,29.6a2.7,2.7,0,0,0,.7.8h0"/></g><path d="M478.1,152.8l-3.6-6.7-1,.3-1,.3,3.6,6.8L492.5,184c.2-.3.5-.5.7-.8s.5-.5.7-.8Z"/><path class="cls-61" d="M407.6,196.4A32.6,32.6,0,1,1,375,163.8,32.61,32.61,0,0,1,407.6,196.4Z"/><path class="cls-53" d="M384,182s8.9-9.4,13.8-8.9h0a22,22,0,0,0-2.3-2h0l-1.2-.9-.1-.1c-.4-.3-.8-.5-1.2-.8h0c-.4-.1-.8-.1-1.2-.2-5.3-.5-16.9,4.5-16.9,4.5s-11.6-5-16.9-4.5a5,5,0,0,0-1.2.2h0a8.34,8.34,0,0,1-1.2.8h-.1l-1.2.9h0c-.8.6-1.5,1.3-2.3,2h0c4.8-.6,13.8,8.9,13.8,8.9s-17.7,20.9-17,34.1a34.23,34.23,0,0,0,3.6,4c-.4-12,22.3-30.1,22.3-30.1S397.5,208,397,220a34.23,34.23,0,0,0,3.6-4h0C401.7,202.9,384,182,384,182Z"/><path class="cls-53" d="M549.1,5.5l-1.2-.9-2.3,110,53.3,7.2C586.7,5,555.8,10.8,549.1,5.5Z"/><path class="cls-45" d="M522,.1c-10.8.4-12.1,11.4-12.2,15.2v1.2a819.53,819.53,0,0,1,0,93.1c9.9,2.3,38.5,5.3,38.5,5.3s0-20.9.7-50.6c.8-37.5-1.2-59.8-1.2-59.8C541.5.1,534.3-.3,522,.1Z"/><path class="cls-53" d="M201,5.5l1.2-.9,2.3,110-53.2,7.2C163.3,5,194.2,10.8,201,5.5Z"/><path class="cls-45" d="M228,.1c10.8.4,12.1,11.4,12.2,15.2v1.2a819.53,819.53,0,0,0,0,93.1c-9.9,2.3-38.5,5.3-38.5,5.3s-.1-20.9-.7-50.5c-.8-37.5,1.2-59.8,1.2-59.8C208.6.1,215.8-.3,228,.1Z"/></svg>