<svg id="Layer_1" data-name="Layer 1" xmlns="http://www.w3.org/2000/svg" viewBox="0 0 750 630.46"><defs><style>.cls-1{fill:#208de8;}.cls-2{fill:none;}.cls-3{fill:#141414;}.cls-4{fill:#007bce;}.cls-5{fill:#154a68;}.cls-6,.cls-9{fill:#0a0a0a;}.cls-6{stroke:#000;}.cls-6,.cls-8{stroke-miterlimit:10;}.cls-7{fill:#6d6b6c;}.cls-8{fill:#fff;stroke:#0084dd;stroke-width:2px;}.cls-10{fill:#1a1615;}.cls-11{fill:#1a1a1a;}.cls-12{fill:#0d0d0d;}.cls-13{fill:#0c0c0c;}</style></defs><title>inno_base2</title><path class="cls-1" d="M664.37,214c-6.72-16.68-20.54-20.88-21.82-22-11.7-10.34-2.47-21.22-19.95-30.7-18.28-9.91-72-37-114.22-31.37-9.22,1.23-27.83,17.6-41.21,17.6H282.84c-13.38,0-32-16.37-41.21-17.6-42.25-5.63-95.94,21.46-114.23,31.37-17.47,9.48-8.24,20.36-19.94,30.7-1.28,1.12-15.1,5.32-21.82,22C22.89,370-1.74,469.11.09,529.13,3,623.55,76.67,630.46,76.67,630.46c37-8.62,111.55-129.14,168.54-129.14H504.8c57,0,131.5,120.52,168.54,129.14,0,0,73.68-6.91,76.56-101.33C751.77,469.11,727.09,370,664.37,214Z"/><path class="cls-2" d="M106.25,192.64a11.36,11.36,0,0,0,1.15-.65C107,192.21,106.63,192.41,106.25,192.64Z"/><path class="cls-2" d="M642.56,192a12.43,12.43,0,0,0,1.53.82C643.59,192.51,643.07,192.24,642.56,192Z"/><g id="Dpad"><path class="cls-3" d="M291.23,353.51h0c0-5-27.12-5-27.12,0v96h0c0,5,27.13,5,27.13,0,0-23.85,0-96,0-96Z"/><path class="cls-3" d="M229.69,387.94h0c-5,0-5,27.11,0,27.11h96c5,0,5-27.11,0-27.11Z"/><path class="cls-4" d="M277.67,452.7c-7.13,0-12.74-1.32-13.05-3.08a.76.76,0,0,1,0-.15V415.05a.5.5,0,0,0-.5-.5H229.69c-1.82,0-3.25-5.74-3.25-13.06s1.43-13.06,3.25-13.06h34.42a.5.5,0,0,0,.5-.5V353.51a.61.61,0,0,1,0-.14l.06-.23.08-.13c.5-.81,2.11-1.52,4.54-2l.89-.18a9.49,9.49,0,0,1,1-.13l.16,0,.9-.11,1-.11,1-.08,2.37-.08h1c7.33,0,13.06,1.42,13.06,3.23,0,.17,0,16,0,34.42a.5.5,0,0,0,.5.5h34.41c1.81,0,3.23,5.74,3.23,13.06s-1.42,13.06-3.23,13.06H291.24a.5.5,0,0,0-.5.5v34.42a.77.77,0,0,1,0,.15C290.42,451.38,284.8,452.7,277.67,452.7Z"/><path class="cls-4" d="M277.67,350.78c8.09,0,12.56,1.61,12.56,2.73v34.43a1,1,0,0,0,1,1h34.42c1.14,0,2.73,4.77,2.73,12.55s-1.59,12.56-2.73,12.56H291.23a1,1,0,0,0-1,1v34.49c-.2,1.11-4.67,2.66-12.56,2.66s-12.36-1.55-12.56-2.66V415.05a1,1,0,0,0-1-1H229.69c-1.15,0-2.75-4.78-2.75-12.56s1.6-12.56,2.75-12.56h34.42a1,1,0,0,0,1-1V353.47h0a.74.74,0,0,0,0-.14l0-.05c.15-.25.91-1.12,4.19-1.76h.06c.27-.07.55-.12.83-.17l.08,0a6.73,6.73,0,0,1,.8-.11l.18,0,.92-.12h0l1-.11h0l1-.08h.12l.58,0h.56l1,0h1.15m0-1h-1.18l-1,0h-.17l-1,0h-.14l-1,.08h0l-1,.11h0l-1,.13h-.05a8.88,8.88,0,0,0-.94.13h-.08l-.88.18h0c-2.43.48-4.25,1.22-4.86,2.23a.46.46,0,0,0-.11.16v0a1.16,1.16,0,0,0,0,.18l0,0a.89.89,0,0,0,0,.14.86.86,0,0,0,0,.22v34.43H229.69c-5,0-5,27.11,0,27.11h34.42v34.42h0a1,1,0,0,0,0,.24c.4,2.33,7,3.49,13.54,3.49s13.13-1.16,13.54-3.49a2.12,2.12,0,0,0,0-.24V415.05h34.42c5,0,5-27.11,0-27.11H291.23V353.51h0c0-2.5-6.79-3.73-13.56-3.73Z"/></g><g id="Menu_Key" data-name="Menu Key"><path class="cls-5" d="M448.92,280.37a18.81,18.81,0,1,1-18.79-18.81A18.81,18.81,0,0,1,448.92,280.37Z"/><path class="cls-6" d="M446.23,280.37a16.11,16.11,0,1,1-16.1-16.11A16.11,16.11,0,0,1,446.23,280.37Z"/><rect class="cls-7" x="422.93" y="275.74" width="14.36" height="1.55"/><rect class="cls-7" x="422.93" y="279.66" width="14.36" height="1.55"/><rect class="cls-7" x="422.93" y="283.47" width="14.36" height="1.53"/></g><g id="Switcher_Key" data-name="Switcher Key"><path class="cls-5" d="M340.94,280.37a18.81,18.81,0,1,1-18.82-18.81A18.81,18.81,0,0,1,340.94,280.37Z"/><path class="cls-6" d="M338.22,280.37a16.1,16.1,0,1,1-16.1-16.11A16.09,16.09,0,0,1,338.22,280.37Z"/><polygon class="cls-7" points="319.6 280.27 316.57 280.27 316.57 276.48 322.04 276.48 322.04 277.8 323.84 277.8 323.84 274.74 314.95 274.74 314.95 282.13 319.6 282.13 319.6 280.27"/><path class="cls-7" d="M320.35,278.43V286h9v-7.58Zm7.16,5.78H322v-3.95h5.47Z"/></g><g id="Left_Stick" data-name="Left Stick"><path class="cls-1" d="M185.47,351.49a67.69,67.69,0,1,1,67.71-67.69A67.77,67.77,0,0,1,185.47,351.49Z"/><path class="cls-8" d="M241.57,279.86a56.1,56.1,0,1,1-56.1-56.1A56.09,56.09,0,0,1,241.57,279.86Z"/></g><g id="Right_Stick" data-name="Right Stick"><path class="cls-1" d="M473,465.46a67.7,67.7,0,1,1,67.71-67.68A67.77,67.77,0,0,1,473,465.46Z"/><path class="cls-8" d="M529.15,393.82A56.1,56.1,0,1,1,473,337.73,56.09,56.09,0,0,1,529.15,393.82Z"/></g><g id="Button_Base" data-name="Button Base"><g id="A"><path class="cls-9" d="M566.76,355.27A25.2,25.2,0,1,1,592,330.07,25.22,25.22,0,0,1,566.76,355.27Z"/><path class="cls-10" d="M566.76,306.38a23.7,23.7,0,1,1-23.69,23.69,23.69,23.69,0,0,1,23.69-23.69m0-3a26.7,26.7,0,1,0,26.71,26.69,26.72,26.72,0,0,0-26.71-26.69Z"/></g><g id="Y"><path class="cls-9" d="M566.76,254.2A25.2,25.2,0,1,1,592,229,25.23,25.23,0,0,1,566.76,254.2Z"/><path class="cls-10" d="M566.76,205.3A23.7,23.7,0,1,1,543.07,229a23.7,23.7,0,0,1,23.69-23.69m0-3A26.7,26.7,0,1,0,593.47,229a26.72,26.72,0,0,0-26.71-26.69Z"/></g><g id="B"><path class="cls-9" d="M617.3,304.73a25.2,25.2,0,1,1,25.2-25.2A25.23,25.23,0,0,1,617.3,304.73Z"/><path class="cls-10" d="M617.3,255.84a23.7,23.7,0,1,1-23.69,23.69,23.68,23.68,0,0,1,23.69-23.69m0-3A26.7,26.7,0,1,0,644,279.53a26.72,26.72,0,0,0-26.7-26.69Z"/></g><g id="X"><path class="cls-9" d="M516.22,304.73a25.2,25.2,0,1,1,25.21-25.2A25.23,25.23,0,0,1,516.22,304.73Z"/><path class="cls-10" d="M516.22,255.84a23.7,23.7,0,1,1-23.69,23.69,23.69,23.69,0,0,1,23.69-23.69m0-3a26.7,26.7,0,1,0,26.71,26.69,26.72,26.72,0,0,0-26.71-26.69Z"/></g></g><path class="cls-11" d="M375.61,156.5s-88.91-1.07-100.54-3l-16.39,30.53c20.24,23.27,41.59,53.32,56.44,53.32h121c14.87,0,36.2-30,56.46-53.32l-16.38-30.53C464.56,155.43,375.61,156.5,375.61,156.5Z"/><path class="cls-12" d="M476.19,153.53l-3.64-6.78a21.51,21.51,0,0,1-5.38.75H282.84a20.06,20.06,0,0,1-4.28-.51l-3.49,6.54c11.63,1.9,100.54,3,100.54,3S464.56,155.43,476.19,153.53Z"/><g id="RB"><path class="cls-11" d="M642.55,192c-9-7.94-5.64-16.16-11.47-23.85.24.33.49.65.7,1,0,0-96.53-42.06-120.8-34.48-15.57,4.87-27.24,15.34-32.83,18.23L494,182.42c11.17-12.68,22-23,31.06-24.76C545.1,153.81,609,174,642.56,192Z"/><path class="cls-12" d="M511,134.62c24.27-7.59,120.77,34.46,120.8,34.47-.21-.33-.46-.65-.7-1L631,168c-.1-.14-.18-.25-.29-.38l-.14-.16-.27-.33a1.21,1.21,0,0,1-.16-.16,1.61,1.61,0,0,0-.28-.3l-.16-.2a4,4,0,0,1-.29-.29,1.89,1.89,0,0,0-.2-.2,2,2,0,0,1-.29-.29l-.23-.18a1.33,1.33,0,0,0-.3-.28l-.23-.21c-.11-.1-.21-.17-.31-.27l-.27-.22-.33-.26a1.85,1.85,0,0,0-.27-.19c-.12-.1-.22-.19-.35-.28a1.71,1.71,0,0,1-.27-.2l-.38-.26-.29-.22a3.21,3.21,0,0,1-.41-.26l-.3-.2a5,5,0,0,1-.45-.29,1.46,1.46,0,0,1-.3-.17,4.74,4.74,0,0,0-.53-.3l-.25-.17c-.28-.15-.56-.3-.84-.47-18.28-9.91-72-37-114.22-31.37-7.61,1-21.63,12.34-33.82,16.28l3.59,6.67C483.74,150,495.41,139.48,511,134.62Z"/></g><g id="LB"><path class="cls-12" d="M241.63,129.89c-42.25-5.63-95.94,21.46-114.23,31.37-.27.17-.55.31-.82.47l-.25.16a4.85,4.85,0,0,0-.54.3,1.17,1.17,0,0,1-.29.17l-.45.3-.29.18a3,3,0,0,1-.42.27l-.26.2-.4.27a2.07,2.07,0,0,1-.25.19,3.8,3.8,0,0,0-.38.29,2.5,2.5,0,0,0-.24.18,4.5,4.5,0,0,1-.37.28l-.22.19c-.12.11-.23.19-.35.29l-.19.19a1.92,1.92,0,0,0-.34.3.9.9,0,0,1-.19.15c-.12.12-.21.23-.33.33l-.16.15a2.57,2.57,0,0,1-.33.33l-.12.16a2.66,2.66,0,0,0-.32.35l-.11.12a3.52,3.52,0,0,0-.32.37l-.09.1c-.12.15-.22.27-.32.41L119,168c-.11.14-.21.29-.32.44l0,.05c-.13.15-.23.32-.34.47,0,0,97.69-42,122-34.38,15.54,4.87,27.22,15.33,32.8,18.22l3.42-6.34C264.09,142.91,249.47,130.92,241.63,129.89Z"/><path class="cls-11" d="M273.57,153.1l.46.18Z"/><path class="cls-11" d="M273.1,152.85c-5.58-2.89-17.27-13.36-32.82-18.23C216.07,127.06,119,168.71,118.3,169c-5,7.44-2.21,15.33-10.84,23l-.06,0c33.16-17.87,99.17-38.11,118.75-34.33,9.13,1.76,19.91,12.08,31.08,24.76l15.85-29.58Z"/><path d="M273.1,152.85c.17.08.31.17.47.25C273.41,153,273.27,152.93,273.1,152.85Z"/><path d="M258,183.23c.23.29.47.56.72.83l16.39-30.53,3.49-6.54c-.35-.06-.69-.13-1-.22s-.67-.19-1-.27l-3.43,6.34-15.85,29.58c.24.27.47.54.73.81h0"/></g><path d="M478.15,152.84l-3.59-6.67c-.33.09-.66.21-1,.31l-1,.27,3.64,6.78,16.38,30.54c.24-.28.5-.54.73-.84s.49-.54.72-.81Z"/><path class="cls-11" d="M357,169.29h0Z"/><g id="Inno"><path class="cls-13" d="M307.8,205.69V190.43h5v15.26Z"/><path class="cls-13" d="M326,198.76l-.19-3.48v-4.85h4.79v15.26H326l-5.45-8.31.19,3.48v4.83H315.9V190.43h4.69Z"/><path class="cls-13" d="M343.7,198.76l-.2-3.48v-4.85h4.79v15.26h-4.68l-5.45-8.31.19,3.48v4.83h-4.79V190.43h4.69Z"/><path class="cls-13" d="M366.59,198c0,5.19-3.5,8.11-8,8.11-4.79,0-8-3-8-8.16,0-4.79,3.24-7.9,8-7.9C364,190,366.59,194,366.59,198Zm-11,0c0,1.94.59,4.38,3,4.38,2.16,0,3-1.86,3-4.38,0-2.08-.85-4.29-3-4.22S355.59,196.05,355.59,198Z"/><path class="cls-13" d="M378.42,196.26a2.52,2.52,0,0,0-2.71-2.5c-1.76,0-2.82,1.5-2.82,4.45,0,2.14.47,4.15,3,4.15,1.61,0,2.38-1.12,2.57-2.58h4.81c-.45,3.94-3.27,6.31-7.29,6.31-5.05,0-8.1-3.09-8.1-8.05s3.35-8,7.61-8c4.66,0,7.27,2.31,7.67,6.23Z"/><path class="cls-13" d="M385.53,205.69V190.43H398V194h-7.44v2.18h6.3v3.56h-6.3v2.4h7.74v3.56Z"/><path class="cls-13" d="M410.82,198.76l-.19-3.48v-4.85h4.79v15.26h-4.68l-5.45-8.31.19,3.48v4.83h-4.79V190.43h4.68Z"/><path class="cls-13" d="M417.54,190.43h14v4H427v11.25h-5V194.44h-4.5Z"/><path class="cls-13" d="M441.63,194.86a1.36,1.36,0,0,0-.72-1,2.8,2.8,0,0,0-1.3-.27c-1.1,0-1.59.31-1.59.86,0,2.29,8.78.87,8.78,6.43,0,3.54-2.95,5.25-7.14,5.25-4,0-6.66-2.35-6.77-5.11h4.79a1.74,1.74,0,0,0,.83,1.21,2.68,2.68,0,0,0,1.42.38c1.25,0,2.08-.4,2.08-1.12,0-2.31-8.78-.72-8.78-6.55,0-3.24,2.8-4.87,6.62-4.87,4.23,0,6.16,2.16,6.52,4.83Z"/><g id="Ghost"><path class="cls-13" d="M301.91,193.65v-6.56h-2.56a5,5,0,0,1-1.85-.2,3.27,3.27,0,0,1-2.16-3q0-1.72,0-3.45a3.27,3.27,0,0,1,3.26-3.2c2,0,3.92,0,5.88,0,.52,0,.71.18.71.69v1.95c0,.44-.21.64-.66.64h-4.68a1.1,1.1,0,0,0-1.23,1.22v.93a1.08,1.08,0,0,0,1.14,1.13h4.69c.56,0,.74.17.74.72v5.88a3.28,3.28,0,0,1-3.08,3.24Z"/><path class="cls-13" d="M307.4,170.68a3.26,3.26,0,0,1,3.26,3.17c0,1,0,2,0,3v.41c.41,0,.8,0,1.18,0,.91,0,1.83,0,2.73.08a3.19,3.19,0,0,1,2.65,3.17H307.4Z"/><path class="cls-13" d="M343.51,180.5v-5.82c0-.55.18-.73.73-.73h1.88c.47,0,.67.2.67.66,0,.87,0,1.73,0,2.63h3.26a3.18,3.18,0,0,1-2,3,4.08,4.08,0,0,1-1.26.24c-1,0-2.09,0-3.14,0Z"/><path class="cls-13" d="M319.43,180.5a3.11,3.11,0,0,1,.71-2,3.15,3.15,0,0,1,2.48-1.24c1.15,0,2.3,0,3.46,0a3.28,3.28,0,0,1,3.19,3,1.47,1.47,0,0,1,0,.21Z"/><path class="cls-13" d="M331.48,180.51a3.23,3.23,0,0,1,3.08-3.26c2.21,0,4.42,0,6.63,0l.13,0a3.23,3.23,0,0,1-1.35,2.62,3.08,3.08,0,0,1-1.81.63h-6.68Z"/><path class="cls-13" d="M319.44,183.82h9.83a3,3,0,0,1-.58,1.85,3.19,3.19,0,0,1-2.67,1.42h-3.38A3.27,3.27,0,0,1,319.44,183.82Z"/><path class="cls-13" d="M341.32,183.82a3.27,3.27,0,0,1-1.58,2.79,3,3,0,0,1-1.59.48h-6.49l-.2,0a3.29,3.29,0,0,1,1.59-2.79,3,3,0,0,1,1.58-.47h6.69Z"/><path class="cls-13" d="M310.66,183.83c0,.92,0,1.82,0,2.72a.53.53,0,0,1-.55.54h-2.18a.53.53,0,0,1-.55-.54c0-.9,0-1.8,0-2.72Z"/><path class="cls-13" d="M314,183.82h3.28v.74c0,.64,0,1.28,0,1.92a.55.55,0,0,1-.61.61h-2.09a.53.53,0,0,1-.58-.57C313.94,185.63,314,184.74,314,183.82Z"/><path class="cls-13" d="M346.78,183.83v3.22a3.21,3.21,0,0,1-3.26-3.22Z"/></g></g><path class="cls-11" d="M549.08,5.47c-.4-.32-.8-.62-1.21-.9l-2.35,110,53.28,7.24C586.73,5,555.82,10.76,549.08,5.47Z"/><path class="cls-3" d="M522,.14C511.22.55,510,11.58,509.86,15.33v1.23a819.52,819.52,0,0,1,0,93.09c9.93,2.29,38.54,5.3,38.54,5.3s0-20.91.68-50.6c.8-37.5-1.21-59.78-1.21-59.78C541.45.09,534.3-.31,522,.14Z"/><path class="cls-11" d="M201,5.47c.4-.32.8-.62,1.21-.9l2.32,110-53.25,7.24C163.35,5,194.24,10.76,201,5.47Z"/><path class="cls-3" d="M228,.14c10.84.41,12.07,11.44,12.19,15.19v1.23a819.52,819.52,0,0,0,0,93.09c-9.92,2.29-38.53,5.3-38.53,5.3S201.63,94,201,64.35c-.82-37.5,1.21-59.78,1.21-59.78C208.62.09,215.77-.31,228,.14Z"/></svg>