<svg id="Layer_1" data-name="Layer 1" xmlns="http://www.w3.org/2000/svg" xmlns:xlink="http://www.w3.org/1999/xlink" viewBox="0 0 750 630.5"><defs><style>.cls-1{fill:none;}.cls-2{fill:#e83838;}.cls-3{clip-path:url(#clip-path);}.cls-4{fill:#fbfbfb;}.cls-5{fill:#141414;}.cls-6{fill:#120b0b;}.cls-7{fill:#242424;}.cls-8{fill:#292929;}.cls-9{fill:#191919;}.cls-10{fill:#1c1c1c;}.cls-11{fill:#171717;}.cls-12{fill:#0f0f0f;}.cls-13{fill:#1a1a1a;}.cls-14{fill:#1a1615;}.cls-15,.cls-19{fill:#0a0a0a;}.cls-15{stroke:#000;}.cls-15,.cls-17,.cls-18{stroke-miterlimit:10;}.cls-16{fill:#6d6b6c;}.cls-17{fill:#080808;stroke:#140c0c;}.cls-17,.cls-18{stroke-width:2px;}.cls-18{stroke:#120b0b;}.cls-20{fill:#0d0d0d;}.cls-21{fill:#fafafa;}.cls-22{fill:#fff;}</style><clipPath id="clip-path"><path class="cls-1" d="M664.4,214a37.69,37.69,0,0,0-12.9-16.8,44.78,44.78,0,0,0-7.4-4.4,8.43,8.43,0,0,1-1.5-.8c-33.6-18-97.5-38.2-117.5-34.3-26,5-65.5,79.7-89,79.7h-121c-23.4,0-63-74.7-89-79.7-19.6-3.8-85.6,16.5-118.7,34.3a3.26,3.26,0,0,1-1.2.6,39,39,0,0,0-8.7,5.3A38.4,38.4,0,0,0,85.6,214C22.9,370-1.7,469.1.1,529.1,3,623.5,76.7,630.5,76.7,630.5c37-8.6,111.6-129.1,168.5-129.1H504.8c57,0,131.5,120.5,168.5,129.1,0,0,73.7-6.9,76.6-101.3C751.8,469.1,727.1,370,664.4,214Z"/></clipPath></defs><title>ispot_base</title><path d="M664.4,214c-6.7-16.7-20.5-20.9-21.8-22-11.7-10.3-2.5-21.2-19.9-30.7-18.3-9.9-72-37-114.2-31.4-9.2,1.2-27.8,17.6-41.2,17.6H282.9c-13.4,0-32-16.4-41.2-17.6-42.2-5.6-95.9,21.5-114.2,31.4-17.5,9.5-8.2,20.4-19.9,30.7-1.3,1.1-15.1,5.3-21.8,22C22.9,370-1.7,469.1.1,529.1,3,623.5,76.7,630.5,76.7,630.5c37-8.6,111.6-129.1,168.5-129.1H504.8c57,0,131.5,120.5,168.5,129.1,0,0,73.7-6.9,76.6-101.3C751.8,469.1,727.1,370,664.4,214Z"/><path class="cls-1" d="M106.2,192.6a6.57,6.57,0,0,1,1.2-.6Z"/><path class="cls-1" d="M642.6,192a15.48,15.48,0,0,0,1.5.8A10.93,10.93,0,0,0,642.6,192Z"/><path id="SVGID" class="cls-2" d="M664.4,214a37.69,37.69,0,0,0-12.9-16.8,44.78,44.78,0,0,0-7.4-4.4,8.43,8.43,0,0,1-1.5-.8c-33.6-18-97.5-38.2-117.5-34.3-26,5-65.5,79.7-89,79.7h-121c-23.4,0-63-74.7-89-79.7-19.6-3.8-85.6,16.5-118.7,34.3a3.26,3.26,0,0,1-1.2.6,39,39,0,0,0-8.7,5.3A38.4,38.4,0,0,0,85.6,214C22.9,370-1.7,469.1.1,529.1,3,623.5,76.7,630.5,76.7,630.5c37-8.6,111.6-129.1,168.5-129.1H504.8c57,0,131.5,120.5,168.5,129.1,0,0,73.7-6.9,76.6-101.3C751.8,469.1,727.1,370,664.4,214Z"/><g class="cls-3"><g id="Evade_Logo" data-name="Evade Logo"><path class="cls-4" d="M137.85,208.2q92.68-62.59,185.39-125.15c1.72-1.16,3.5-3.67,5.51-2.69,2.44,1.19,1.1,4.22,1.08,6.4-.41,35.19-11.26,67-32,95.3A159.92,159.92,0,0,1,258.16,220q-77.78,52.56-155.61,105c-2.87,1.94-3.93,3.86-3.65,7.31,1.21,15.06,2.29,30.13,3.14,45.22.27,4.81,1.73,3.79,4.61,1.85Q197,318.24,287.47,257.28c1.95-1.31,4-4.33,6.29-3s.79,4.63.73,7c-1,37.5-13.21,71-36.75,100.15a155.36,155.36,0,0,1-34.11,31.22Q132.43,454.32,41.17,515.9c-.55.37-1.13.71-1.66,1.11-3,2.27-4.51,2.14-4.76-2.21C34,501.86,33,488.93,32.07,476c-1.38-19.06-2.27-38.18-4.27-57.18-2.91-27.73-17.43-48-42-60.82-11.64-6.08-23.58-11.56-35.4-17.3-4.67-2.26-4.76-2.59-.32-5.59q63.48-42.94,127-85.83Z"/><path class="cls-4" d="M223.88,541.67,96.46,627.72c-.83.56-1.66,1.11-2.48,1.69-2.72,1.9-3.55,1.24-3.7-2.09-.68-15.55,1.9-30.58,6.17-45.46a165.57,165.57,0,0,1,35.33-64.43c9.24-10.49,20.09-19.19,31.7-27q91.28-61.51,182.45-123.21c3-2,4.06-2.17,4.34,2q2.55,39.27,5.51,78.51c.25,3.38-.69,5.44-3.6,7.39Q288,498.28,223.88,541.67Z"/></g></g><g id="Dpad"><path class="cls-5" d="M277.7,452.7c-7.1,0-12.7-1.3-13-3.1V415.1a.47.47,0,0,0-.5-.5H229.8c-1.8,0-3.2-5.7-3.2-13.1s1.4-13.1,3.2-13.1h34.4a.47.47,0,0,0,.5-.5V353.4l.1-.2.1-.1c.5-.8,2.1-1.5,4.5-2,.3-.1.6-.1.9-.2a3.75,3.75,0,0,1,1-.1h.2c.3,0,.6-.1.9-.1s.7-.1,1-.1.7-.1,1-.1l2.4-.1h1c7.3,0,13.1,1.4,13.1,3.2V388a.47.47,0,0,0,.5.5h34.4c1.8,0,3.2,5.7,3.2,13.1s-1.4,13.1-3.2,13.1H291.4a.47.47,0,0,0-.5.5v34.6C290.4,451.4,284.8,452.7,277.7,452.7Z"/><path class="cls-6" d="M277.7,350.8c8.1,0,12.6,1.6,12.6,2.7h0v34.4a.94.94,0,0,0,1,1h34.4c1.1,0,2.7,4.8,2.7,12.6s-1.6,12.6-2.7,12.6H291.3a.94.94,0,0,0-1,1v34.5c-.2,1.1-4.7,2.7-12.6,2.7s-12.4-1.5-12.6-2.7V415a.94.94,0,0,0-1-1H229.7c-1.1,0-2.7-4.8-2.7-12.6s1.6-12.6,2.7-12.6h34.4a.94.94,0,0,0,1-1V353.4h0v-.2c.2-.3.9-1.1,4.2-1.8h.1c.3-.1.6-.1.8-.2h.1a2.49,2.49,0,0,1,.8-.1h.2c.3,0,.6-.1.9-.1h0c.3,0,.7-.1,1-.1h0c.3,0,.6-.1,1-.1h3.5m0-1h-3.5a3.4,3.4,0,0,0-1,.1h0c-.3,0-.7.1-1,.1h0c-.3,0-.7.1-1,.1h-.1c-.3,0-.6.1-.9.1h-.1c-.3.1-.6.1-.9.2h0c-2.4.5-4.3,1.2-4.9,2.2a.35.35,0,0,0-.1.2h0v.2h0v34.7H229.8c-5,0-5,27.1,0,27.1h34.4v34.4h0v.2c.4,2.3,7,3.5,13.5,3.5s13.1-1.2,13.5-3.5V414.8h34.4c5,0,5-27.1,0-27.1H291.2V353.3h0c0-2.3-6.8-3.5-13.5-3.5Z"/><path class="cls-7" d="M264.1,387.9l-3.6-3.6H229.7a5.23,5.23,0,0,0-2.8.8l2.8,2.8Z"/><path class="cls-8" d="M229.7,387.9h0l-2.8-2.8c-1.4.9-2.7,2.7-3.5,6.1a43.46,43.46,0,0,0-1,10.2,50.29,50.29,0,0,0,1,10.2c.8,3.4,2.2,5.2,3.5,6.1l2.8-2.8C224.7,415,224.7,387.9,229.7,387.9Z"/><path class="cls-7" d="M269.2,350.5h0c.3-.1.6-.1.9-.2h.1a2.77,2.77,0,0,1,.9-.1h.1c.3,0,.7-.1,1-.1h0c.3,0,.7-.1,1-.1h0c.3,0,.7-.1,1-.1h3.5c6.8,0,13.6,1.2,13.6,3.7l2.8-2.8c-.9-1.4-2.7-2.7-6.1-3.5a43.46,43.46,0,0,0-10.2-1,49.55,49.55,0,0,0-10.2,1c-2.9.7-4.7,1.8-5.7,3l2.6,2.6C265,351.7,266.8,351,269.2,350.5Z"/><path class="cls-9" d="M325.7,387.9l2.8-2.8a5,5,0,0,0-2.8-.8H294.9l-3.6,3.6Z"/><path class="cls-10" d="M291.2,353.5h0v34.4l3.6-3.6h0V353.5a5.23,5.23,0,0,0-.8-2.8l-2.8,2.8Z"/><path class="cls-8" d="M264.1,353.5v-.3h0V353h0c0-.1.1-.1.1-.2l-2.6-2.6a4.82,4.82,0,0,0-1.3,3.3v30.8l3.6,3.6C264.1,374.1,264.1,361.3,264.1,353.5Z"/><path class="cls-11" d="M325.7,415H291.3l3.6,3.6h32.3l.3-.3a4.05,4.05,0,0,0,.9-.5l-2.7-2.8Z"/><path class="cls-12" d="M291.2,449.5l2.8,2.8a5,5,0,0,0,.8-2.8V418.7l-3.6-3.6Z"/><path class="cls-12" d="M332,391.3c-.8-3.4-2.2-5.2-3.6-6.1l-2.8,2.8c5,0,5,27.1,0,27.1l2.8,2.8c1.4-.9,2.7-2.7,3.5-6.1a43.46,43.46,0,0,0,1-10.2A44.29,44.29,0,0,0,332,391.3Z"/><path class="cls-11" d="M291.2,449.7c-.4,2.3-7,3.5-13.5,3.5s-13.1-1.2-13.5-3.5v-.2l-2.8,2.8c.9,1.4,2.7,2.7,6.2,3.5a42.89,42.89,0,0,0,10.2,1,50.29,50.29,0,0,0,10.2-1c3.4-.8,5.2-2.2,6.1-3.5l-2.8-2.8C291.2,449.5,291.2,449.6,291.2,449.7Z"/><path class="cls-10" d="M264.1,449.5h0V415.1l-3.6,3.6v31.6l.1.2a4.72,4.72,0,0,0,.7,1.7l2.8-2.7Z"/><path class="cls-13" d="M229.7,415l-2.8,2.8a5.23,5.23,0,0,0,2.8.8h30.8l3.6-3.6Z"/></g><g id="Menu_Key" data-name="Menu Key"><path class="cls-14" d="M448.9,280.4a18.8,18.8,0,1,1-18.8-18.8A18.78,18.78,0,0,1,448.9,280.4Z"/><path class="cls-15" d="M446.2,280.4a16.1,16.1,0,1,1-16.1-16.1A16.09,16.09,0,0,1,446.2,280.4Z"/><rect class="cls-16" x="422.9" y="275.7" width="14.4" height="1.6"/><rect class="cls-16" x="422.9" y="279.7" width="14.4" height="1.6"/><rect class="cls-16" x="422.9" y="283.5" width="14.4" height="1.5"/></g><g id="Switcher_Key" data-name="Switcher Key"><path class="cls-14" d="M340.9,280.4a18.8,18.8,0,1,1-18.8-18.8A18.78,18.78,0,0,1,340.9,280.4Z"/><path class="cls-15" d="M338.2,280.4a16.1,16.1,0,1,1-16.1-16.1A16.09,16.09,0,0,1,338.2,280.4Z"/><polygon class="cls-16" points="319.6 280.3 316.6 280.3 316.6 276.5 322 276.5 322 277.8 323.8 277.8 323.8 274.7 315 274.7 315 282.1 319.6 282.1 319.6 280.3"/><path class="cls-16" d="M320.4,278.4V286h9v-7.6Zm7.1,5.8H322v-3.9h5.5Z"/></g><g id="Left_Stick" data-name="Left Stick"><path class="cls-17" d="M185.5,351.5a67.7,67.7,0,1,1,67.7-67.7A67.82,67.82,0,0,1,185.5,351.5Z"/><path class="cls-18" d="M241.6,279.9a56.1,56.1,0,1,1-56.1-56.1A56.08,56.08,0,0,1,241.6,279.9Z"/></g><g id="Right_Stick" data-name="Right Stick"><path class="cls-17" d="M473,465.5a67.7,67.7,0,1,1,67.7-67.7A67.82,67.82,0,0,1,473,465.5Z"/><path class="cls-18" d="M529.2,393.8a56.1,56.1,0,1,1-56.1-56.1A56.08,56.08,0,0,1,529.2,393.8Z"/></g><g id="Button_Base" data-name="Button Base"><g id="A"><path class="cls-19" d="M566.8,355.3A25.2,25.2,0,1,1,592,330.1,25.22,25.22,0,0,1,566.8,355.3Z"/><path class="cls-14" d="M566.8,306.4a23.7,23.7,0,1,1-23.7,23.7,23.69,23.69,0,0,1,23.7-23.7m0-3a26.7,26.7,0,1,0,26.7,26.7,26.76,26.76,0,0,0-26.7-26.7Z"/></g><g id="Y"><path class="cls-19" d="M566.8,254.2A25.2,25.2,0,1,1,592,229,25.22,25.22,0,0,1,566.8,254.2Z"/><path class="cls-14" d="M566.8,205.3A23.7,23.7,0,1,1,543.1,229a23.69,23.69,0,0,1,23.7-23.7m0-3A26.7,26.7,0,1,0,593.5,229a26.76,26.76,0,0,0-26.7-26.7Z"/></g><g id="B"><path class="cls-19" d="M617.3,304.7a25.2,25.2,0,1,1,25.2-25.2A25.22,25.22,0,0,1,617.3,304.7Z"/><path class="cls-14" d="M617.3,255.8a23.7,23.7,0,1,1-23.7,23.7,23.69,23.69,0,0,1,23.7-23.7m0-3A26.7,26.7,0,1,0,644,279.5a26.76,26.76,0,0,0-26.7-26.7Z"/></g><g id="X"><path class="cls-19" d="M516.2,304.7a25.2,25.2,0,1,1,25.2-25.2A25.22,25.22,0,0,1,516.2,304.7Z"/><path class="cls-14" d="M516.2,255.8a23.7,23.7,0,1,1-23.7,23.7,23.69,23.69,0,0,1,23.7-23.7m0-3a26.7,26.7,0,1,0,26.7,26.7,26.76,26.76,0,0,0-26.7-26.7Z"/></g></g><path class="cls-13" d="M375.6,156.5s-88.9-1.1-100.5-3L258.7,184c20.2,23.3,41.6,53.3,56.4,53.3h121c14.9,0,36.2-30,56.5-53.3l-16.4-30.5C464.6,155.4,375.6,156.5,375.6,156.5Z"/><path class="cls-20" d="M476.2,153.5l-3.6-6.8a21.08,21.08,0,0,1-5.4.7H282.8a21.85,21.85,0,0,1-4.3-.5l-3.5,6.5c11.6,1.9,100.5,3,100.5,3S464.6,155.4,476.2,153.5Z"/><g id="RB"><path class="cls-13" d="M642.5,192c-9-7.9-5.6-16.2-11.5-23.8.2.3.5.7.7,1,0,0-96.5-42.1-120.8-34.5-15.6,4.9-27.2,15.3-32.8,18.2L494,182.5c11.2-12.7,21.9-23,31.1-24.8,20-3.9,83.9,16.3,117.4,34.3Z"/><path class="cls-20" d="M511,134.6c24.3-7.6,120.8,34.5,120.8,34.5-.2-.3-.5-.7-.7-1l-.1-.1a1.38,1.38,0,0,1-.3-.4c0-.1-.1-.1-.1-.2l-.3-.3-.2-.2-.3-.3-.2-.2-.3-.3-.2-.2-.3-.3c-.1-.1-.2-.1-.2-.2l-.3-.3-.2-.2-.3-.3c-.1-.1-.2-.1-.3-.2l-.3-.3c-.1-.1-.2-.1-.3-.2a1.38,1.38,0,0,0-.4-.3c-.1-.1-.2-.1-.3-.2s-.3-.2-.4-.3-.2-.1-.3-.2-.3-.2-.4-.3-.2-.1-.3-.2-.3-.2-.5-.3-.2-.1-.3-.2a2.19,2.19,0,0,1-.5-.3c-.1-.1-.2-.1-.3-.2a5.58,5.58,0,0,1-.8-.5c-18.3-9.9-72-37-114.2-31.4-7.6,1-21.6,12.3-33.8,16.3l3.6,6.7C483.7,149.9,495.4,139.5,511,134.6Z"/></g><g id="LB"><path class="cls-20" d="M241.6,129.9c-42.2-5.6-95.9,21.5-114.2,31.4a5.58,5.58,0,0,0-.8.5c-.1.1-.2.1-.3.2a2.19,2.19,0,0,0-.5.3c-.1.1-.2.1-.3.2a2.19,2.19,0,0,1-.5.3c-.1,0-.2.1-.3.2s-.3.2-.4.3-.2.1-.3.2-.3.2-.4.3-.2.1-.3.2-.3.2-.4.3-.2.1-.2.2-.3.2-.4.3l-.2.2-.3.3-.2.2-.3.3-.2.2-.3.3c-.1,0-.1.1-.2.2l-.3.3c0,.1-.1.1-.1.2l-.3.3-.1.1c-.1.1-.2.3-.3.4l-.1.1c-.1.1-.2.3-.3.4a.1.1,0,0,1-.1.1c-.1.1-.2.3-.3.4h0c-.1.2-.2.3-.3.5,0,0,97.7-42,122-34.4,15.5,4.9,27.2,15.3,32.8,18.2l3.4-6.3C264.1,142.9,249.5,130.9,241.6,129.9Z"/><path class="cls-13" d="M273.6,153.1c.2.1.3.1.5.2C273.9,153.2,273.7,153.2,273.6,153.1Z"/><path class="cls-13" d="M273.1,152.8c-5.6-2.9-17.3-13.4-32.8-18.2C216.1,127,119,168.7,118.3,169c-5,7.4-2.2,15.3-10.8,23h-.1c33.2-17.9,99.2-38.1,118.7-34.3,9.1,1.8,19.9,12.1,31.1,24.8l15.9-29.7Z"/><path d="M273.1,152.8c.2.1.3.2.5.2C273.4,153,273.3,152.9,273.1,152.8Z"/><path d="M258,183.2a5.72,5.72,0,0,0,.7.8l16.4-30.5,3.5-6.5c-.3-.1-.7-.1-1-.2s-.7-.2-1-.3l-3.4,6.3-15.9,29.6a2.7,2.7,0,0,0,.7.8h0"/></g><path d="M478.1,152.8l-3.6-6.7-1,.3-1,.3,3.6,6.8L492.5,184c.2-.3.5-.5.7-.8s.5-.5.7-.8Z"/><path class="cls-21" d="M383.29,186.41h2.15c.28,0,.35.18.46.36.68,1.19,1.38,2.38,2.05,3.58a.69.69,0,0,0,.72.41c.93,0,1.87,0,2.81,0a3.25,3.25,0,1,0,0-6.49c-3,0-6,0-8.94,0a.8.8,0,0,1-.85-.49c-.24-.56-.82-.93-.83-1.65.06-.1.21,0,.33,0,3.5,0,7,0,10.49,0A5.42,5.42,0,0,1,393,192.75a7.35,7.35,0,0,1-1.93.18c-1.24,0-2.48,0-3.73,0-.21,0-.39,0-.52-.23-1.16-2-2.34-4.09-3.51-6.13C383.27,186.54,383.29,186.5,383.29,186.41Z"/><path class="cls-21" d="M348.59,192.92h-15.9c-.34,0-.41-.11-.41-.42,0-1.89,0-3.79,0-5.68,0-.38.13-.43.46-.43,3.9,0,7.8,0,11.7,0,.21,0,.41,0,.54.22.34.63.71,1.25,1.11,2h-.68c-3.48,0-7,0-10.44,0-.43,0-.58.11-.53.54a5.43,5.43,0,0,1,0,1.14c0,.42.11.5.51.5,2.69,0,5.39,0,8.08,0,1.3,0,2.6,0,3.9,0a.61.61,0,0,1,.63.37C347.86,191.69,348.21,192.26,348.59,192.92Z"/><path class="cls-21" d="M411.09,192.93c-2,0-4.09,0-6.14,0-.36,0-.48-.08-.47-.47,0-1.87,0-3.74,0-5.62,0-.36.11-.44.45-.44H417.2c.36,0,.52.07.49.47s.17,1.27-.1,1.61-1,.1-1.58.1c-2.94,0-5.89,0-8.83,0-.43,0-.58.11-.53.54a6.2,6.2,0,0,1,0,1.14c0,.42.12.5.51.5,3.32,0,6.65,0,10,0,.46,0,.59.12.55.57s.22,1.22-.12,1.53-1,.08-1.49.08Z"/><path class="cls-21" d="M357.22,192.93,351,182.09h2.33c.27,0,.31.25.41.42l3.12,5.41.38.64c1-1.69,2-3.28,2.82-5a2.21,2.21,0,0,1,2.68-1.51,4.21,4.21,0,0,0,.73,0Z"/><path class="cls-21" d="M372.08,186.44c-1.19,2.06-2.34,4-3.47,6a.76.76,0,0,1-.8.46c-.61,0-1.23,0-2,0,2.1-3.63,4.15-7.2,6.23-10.83l2.76,4.76c1.07,1.87,2.14,3.74,3.23,5.6.24.42.16.51-.29.48-.65,0-1.41.18-1.91-.1s-.68-1-1-1.56Z"/><path class="cls-21" d="M411.07,184.25c-2,0-4,0-6,0-.55,0-.7-.17-.63-.67a4.39,4.39,0,0,0,0-.63c0-.88,0-.88.91-.88,3.91,0,7.83,0,11.75,0,.4,0,.59.06.54.52s.16,1.23-.11,1.55-1,.09-1.52.1Z"/><path class="cls-21" d="M343.6,184.25H341c-2.71,0-5.43,0-8.14,0-.44,0-.57-.1-.53-.53a8.83,8.83,0,0,0,0-1.26c0-.31.1-.39.39-.39H342c.17,0,.34,0,.44.18C342.82,182.91,343.19,183.54,343.6,184.25Z"/><path class="cls-22" d="M310.8,207.6V197.16h3.42V207.6Z"/><path class="cls-22" d="M321.79,200.19a.92.92,0,0,0-.5-.71,1.87,1.87,0,0,0-.88-.19c-.75,0-1.09.22-1.09.59,0,1.57,6,.6,6,4.4,0,2.42-2,3.59-4.88,3.59s-4.55-1.61-4.63-3.49h3.28a1.18,1.18,0,0,0,.57.82,1.79,1.79,0,0,0,1,.27c.85,0,1.42-.28,1.42-.77,0-1.58-6-.5-6-4.48,0-2.22,1.91-3.34,4.52-3.34,2.9,0,4.22,1.48,4.46,3.31Z"/><path class="cls-22" d="M326.63,207.6V197.16h5c3,0,4.45,1.38,4.45,3.52s-1.33,3.67-4.33,3.67h-1.73v3.25Zm4.84-5.69c.8,0,1.38-.32,1.38-1.21s-1.1-1.11-1.83-1.11h-1v2.32Z"/><path class="cls-22" d="M347.78,202.32a5.2,5.2,0,0,1-5.48,5.55c-3.27,0-5.46-2-5.46-5.58a5.47,5.47,0,0,1,10.94,0Zm-7.52,0c0,1.33.41,3,2,3,1.48,0,2.06-1.28,2.06-3,0-1.42-.58-2.93-2.09-2.89S340.26,201,340.26,202.32Z"/><path class="cls-22" d="M348.8,197.16h9.57v2.74H355.3v7.7h-3.43v-7.7H348.8Z"/><path class="cls-22" d="M366.17,207.6h-3.42v-3.8l-3.89-6.64h3.83l1.8,3.54,1.79-3.54h3.77l-3.88,6.58Z"/><path class="cls-22" d="M381.61,202.32a5.2,5.2,0,0,1-5.48,5.55c-3.28,0-5.46-2-5.46-5.58a5.13,5.13,0,0,1,5.46-5.41A5.18,5.18,0,0,1,381.61,202.32Zm-7.52,0c0,1.33.4,3,2,3,1.48,0,2.06-1.28,2.06-3,0-1.42-.58-2.93-2.09-2.89S374.09,201,374.09,202.32Z"/><path class="cls-22" d="M383.19,197.16h3.42v6.25c0,1,.21,1.91,1.61,1.91,1.24,0,1.6-.78,1.6-1.91v-6.25h3.42v5.9c0,3.35-1.55,4.81-5,4.81-3.23,0-5-1.23-5-4.83Z"/><path class="cls-22" d="M395.2,207.6V197.16h4.58c3.36,0,5.45,1.56,5.45,5,0,3.93-2.19,5.44-5.54,5.44Zm3.42-2.44h.72c1.6,0,2.47-.84,2.47-2.81,0-2.18-.71-2.76-2.54-2.76h-.65Z"/><path class="cls-22" d="M409.84,204v3.64h-3.42V197.16h4.93c3.48,0,4.62.94,4.62,3a2.41,2.41,0,0,1-1.75,2.55c1.1.41,1.77.67,1.77,2.77,0,1.36,0,1.83.36,1.83v.32h-3.46a6.66,6.66,0,0,1-.18-1.83c0-1.36-.23-1.81-1.82-1.81Zm0-2.29h1.35c1.06,0,1.62-.26,1.62-1s-.58-1.09-1.37-1.09h-1.6Z"/><path class="cls-22" d="M428.33,202.32a5.2,5.2,0,0,1-5.48,5.55c-3.28,0-5.47-2-5.47-5.58a5.14,5.14,0,0,1,5.47-5.41A5.19,5.19,0,0,1,428.33,202.32Zm-7.53,0c0,1.33.41,3,2.05,3,1.48,0,2.06-1.28,2.06-3,0-1.42-.58-2.93-2.09-2.89S420.8,201,420.8,202.32Z"/><path class="cls-22" d="M429.72,207.6V197.16h5c3,0,4.45,1.38,4.45,3.52s-1.33,3.67-4.33,3.67h-1.73v3.25Zm4.84-5.69c.8,0,1.38-.32,1.38-1.21s-1.1-1.11-1.83-1.11h-1v2.32Z"/><path class="cls-13" d="M549.1,5.5l-1.2-.9-2.3,110,53.3,7.2C586.7,5,555.8,10.8,549.1,5.5Z"/><path class="cls-5" d="M522,.1c-10.8.4-12.1,11.4-12.2,15.2v1.2a819.53,819.53,0,0,1,0,93.1c9.9,2.3,38.5,5.3,38.5,5.3s0-20.9.7-50.6c.8-37.5-1.2-59.8-1.2-59.8C541.5.1,534.3-.3,522,.1Z"/><path class="cls-13" d="M201,5.5l1.2-.9,2.3,110-53.2,7.2C163.3,5,194.2,10.8,201,5.5Z"/><path class="cls-5" d="M228,.1c10.8.4,12.1,11.4,12.2,15.2v1.2a819.53,819.53,0,0,0,0,93.1c-9.9,2.3-38.5,5.3-38.5,5.3s-.1-20.9-.7-50.5c-.8-37.5,1.2-59.8,1.2-59.8C208.6.1,215.8-.3,228,.1Z"/></svg>