<svg id="Layer_1" data-name="Layer 1" xmlns="http://www.w3.org/2000/svg" xmlns:xlink="http://www.w3.org/1999/xlink" viewBox="0 0 263.9 151.2"><defs><style>.cls-1{fill:none;}.cls-2{fill:#4c4c4c;}.cls-3{fill:#b3b3b3;}.cls-4{fill:#ededed;}.cls-5{fill:#f7f7f7;}.cls-6{opacity:0.12;}.cls-7{fill:url(#SVGID_1_);}.cls-8{opacity:0.12;}.cls-9{fill:url(#SVGID_6_);}.cls-10{fill:#080808;}</style><pattern id="SVGID_1_" data-name="SVGID 1 " width="71" height="71" patternTransform="matrix(0.1, 0, 0, -0.1, -7925.92, 8216.47)" patternUnits="userSpaceOnUse" viewBox="0 0 71 71"><rect class="cls-1" width="71" height="71"/><polygon class="cls-1" points="0 71 71 71 71 0 0 0 0 71"/><path class="cls-2" d="M41.8,35.5a6.3,6.3,0,1,0-6.3,6.3A6.27,6.27,0,0,0,41.8,35.5Z"/></pattern><pattern id="SVGID_6_" data-name="SVGID 6 " width="71" height="71" patternTransform="translate(-13894.95 2335.97) scale(0.1)" patternUnits="userSpaceOnUse" viewBox="0 0 71 71"><rect class="cls-1" width="71" height="71"/><polygon class="cls-1" points="0 0 71 0 71 71 0 71 0 0"/><polygon class="cls-1" points="0 0 71 0 71 71 0 71 0 0"/><path class="cls-3" d="M41.8,35.5a6.3,6.3,0,1,1-6.3-6.3A6.27,6.27,0,0,1,41.8,35.5Z"/></pattern></defs><title>destroy_touchpad</title><path class="cls-4" d="M263.8,5.6A6.57,6.57,0,0,0,257.3,0H6.7A6.48,6.48,0,0,0,.2,5.6,14.77,14.77,0,0,0,.1,7.7V135.1a16.09,16.09,0,0,0,16.1,16.1H247.8a16.09,16.09,0,0,0,16.1-16.1V7.7A13.42,13.42,0,0,0,263.8,5.6Z"/><path class="cls-5" d="M259.4,1.9A1.9,1.9,0,0,0,257.5,0H6.4A1.9,1.9,0,0,0,4.5,1.9V131.1a15.62,15.62,0,0,0,15.6,15.6H243.9a15.62,15.62,0,0,0,15.6-15.6V7.9Z"/><g class="cls-6"><path class="cls-7" d="M4.5,131.1a15.62,15.62,0,0,0,15.6,15.6H243.9a15.62,15.62,0,0,0,15.6-15.6V24.5H4.6V131.1Z"/></g><g class="cls-8"><path class="cls-9" d="M5.5,131.05a15.62,15.62,0,0,0,15.6,15.6H244.9a15.62,15.62,0,0,0,15.6-15.6V24.55H5.5Z"/></g><g id="Luminosity"><path class="cls-10" d="M128.22,77.78c-1.32,0-2.63-.11-3.94-.22-.85-.08-1.7-.12-2.55-.19s-2-.18-3-.28l-2-.18-2.65-.28-2.46-.25-2.5-.28-2.43-.24-2.6-.28-1.67-.16c-.15,0-.13.08-.14.16a15.8,15.8,0,0,1-.29,2,3,3,0,0,1-.2.67.24.24,0,0,1-.33.14,1,1,0,0,1-.7-.79,6.62,6.62,0,0,1-.22-1.93c0-.28,0-.4-.38-.42-.91-.06-1.82-.18-2.74-.28h-.11c-.74-.19-.9-.73-.39-1.3a4.56,4.56,0,0,1,1.1-.85c.25-.16.53,0,.79,0,.47,0,.92.12,1.38.19.14,0,.18,0,.17-.15,0-.51,0-1-.08-1.53s-.1-1.08-.15-1.62c-.09-.85-.18-1.69-.28-2.54s-.16-1.54-.25-2.31l-.33-2.76c-.09-.74-.17-1.48-.25-2.22s-.15-1.37-.22-2.05a3.42,3.42,0,0,1,0-.64.75.75,0,0,1,.78-.6,3.62,3.62,0,0,1,1.59.32c.87.36.69.11.71,1s0,2,.08,3c.06,1.26.12,2.53.17,3.8l.12,2.53c.06,1.32.08,2.63.12,4,0,.61,0,1.22,0,1.84,0,.18.07.24.26.27l3.67.5,3.65.49c1.18.16,2.36.34,3.54.51l3.73.48c1.16.15,2.32.31,3.48.45l2.77.3,2.42.28,2.4.25c.81.09,1.61.19,2.42.3.1,0,.25,0,.26.17a.47.47,0,0,1-.22.45,2,2,0,0,1-.83.24A11,11,0,0,1,128.22,77.78Z"/><path class="cls-10" d="M112.26,64.64v.79a35.67,35.67,0,0,1-.28,4,12.79,12.79,0,0,1-.22,1.38,3.07,3.07,0,0,1-.38.87c-.19.32-.53.24-.79.26-1.12.11-2.24.18-3.36.26l-1.36.11c-.19,0-.25,0-.26-.24-.11-1.13-.25-2.25-.39-3.37s-.28-2.11-.43-3.16c-.12-.88-.23-1.75-.38-2.62-.1-.64,0-.88.68-.93a4.28,4.28,0,0,1,1.86.38c.1,0,.11.11.12.21.09.73.13,1.46.19,2.19.1,1.37.15,2.73.22,4.1,0,.38,0,.77,0,1.16,0,.14.07.18.2.18h2.13a.4.4,0,0,0,.45-.38c.26-1.23.47-2.46.62-3.71a24.21,24.21,0,0,1,.51-3.18c0-.09,0-.22.14-.24s.18.1.24.18a1.07,1.07,0,0,1,.2.48c0,.15.1.17.19.08s.56-.26.6-.62c0,0,0,0,0,0a4.43,4.43,0,0,0,.87-.36s.09,0,.12.08a1.45,1.45,0,0,0,.9.48c.23.07.53.07.67.23s0,.45,0,.69a.54.54,0,0,0,.15.5c.63.66,1.24,1.34,1.85,2,.15.16.24.2.37,0A11.92,11.92,0,0,1,119,64.73a1.06,1.06,0,0,0,.2-1c-.06-.27-.1-.55-.15-.83s0-.45.38-.46a12.43,12.43,0,0,1,2.19.23c.12,0,.11.11.11.2,0,.27,0,.54,0,.82a1.59,1.59,0,0,0,.24,1.08c.1.13,0,.24-.08.31s-.16.19-.17.34c-.08,1.19,0,2.39-.06,3.58,0,.82,0,1.63,0,2.45,0,.17,0,.4-.14.47a.6.6,0,0,1-.55-.18,2,2,0,0,1-.64-1.25c-.19-1.13-.36-2.27-.53-3.41,0-.35-.06-.36-.34-.16l-.8.59c-.14.1-.17.2,0,.32a.69.69,0,0,1,.11.13c.27.33.24.44-.19.57a1.35,1.35,0,0,1-1.26-.24c-.63-.46-1.23-1-1.85-1.42-.08-.06-.2-.17-.26-.15s-.1.19-.12.3c-.2,1.49-.36,3-.64,4.45-.08.45-.24.52-.61.23a1.52,1.52,0,0,1-.55-1.17c-.08-1.21-.12-2.42-.19-3.63,0-.56-.07-1.12-.11-1.68C112.89,65,112.68,64.83,112.26,64.64Z"/><path class="cls-10" d="M154.26,62.09h-2.65c-.2,0-.26-.06-.27-.26a4.71,4.71,0,0,1,.44-1.89.18.18,0,0,1,.19-.14l2.1.09c.33,0,.36,0,.25-.31-.2-.61-.4-1.22-.59-1.83-.1-.3-.06-.37.25-.39a11.15,11.15,0,0,1,1.74.09c.17,0,.41-.07.49.09a1.19,1.19,0,0,1,0,.54v1.72c0,.17,0,.25.22.24h.73c.13,0,.21,0,.21-.17a15.24,15.24,0,0,0,.11-1.65.37.37,0,0,1,.38-.45,3.82,3.82,0,0,1,2,.44c.13.06.1.18.09.28-.06.46-.12.92-.21,1.38,0,.22,0,.28.23.29,1,.06,2.08,0,3.12.07.86,0,1.73,0,2.59,0s1.79,0,2.68.06l.84,0c.27,0,.32.14.16.36a1.9,1.9,0,0,1-1,.57,10.14,10.14,0,0,1-2.38.35l-3.57.23Q161,62,159.66,62c-.21,0-.3,0-.33.28-.16,1.12-.26,2.23-.35,3.35s-.15,2.28-.23,3.42c-.07,1-.15,1.93-.23,2.9,0,.11,0,.26-.13.3a.4.4,0,0,1-.34-.13,2,2,0,0,1-.51-1.12,11.18,11.18,0,0,1-.12-1.42c0-1.37-.1-2.75-.14-4.13q0-1.53,0-3.06c0-.25-.08-.33-.33-.33Z"/><path class="cls-10" d="M145.23,69.41a5.27,5.27,0,0,1-.36,2.09.4.4,0,0,1-.44.28c-2.62-.1-5.25-.06-7.87-.06-.36,0-.71,0-1.07,0s-.26,0-.21-.26c.4-1.5.77-3,1.15-4.51.18-.68.28-1.38.4-2.07,0-.19,0-.26-.18-.27s-.2-.1-.1-.23,0,0,0,0c.52-.28.45-.8.52-1.27a4.85,4.85,0,0,1,.17-.91.58.58,0,0,1,.72-.46,3.68,3.68,0,0,1,1.8,1.08c.11.1.07.26,0,.38s0,.37.26.33a10.5,10.5,0,0,1,1.86,0,14.87,14.87,0,0,1,2.39.3.41.41,0,0,1,.36.43c.06.77.24,1.53.31,2.3S145.22,68.39,145.23,69.41Zm-1.76-.81c-.06-.61,0-1.22-.07-1.83,0-.46-.1-.92-.14-1.38a.31.31,0,0,0-.31-.33,21.24,21.24,0,0,0-3.18-.29c-.18,0-.23.08-.27.23-.14.58-.27,1.17-.43,1.75-.23.84-.48,1.69-.73,2.53-.05.17,0,.22.16.23.42,0,.85,0,1.27.06s.81,0,1.22.07c.73.07,1.47.1,2.2.15.14,0,.23-.05.22-.2C143.4,69.26,143.51,68.93,143.47,68.6Z"/><path class="cls-10" d="M129.31,68.23c-.1,1-.2,2-.31,3,0,.31-.12.37-.42.24a1.27,1.27,0,0,1-.62-.74,5.73,5.73,0,0,1-.3-1.59c-.07-.6-.16-1.21-.21-1.81a.49.49,0,0,0-.28-.4c-.43-.25-.85-.51-1.28-.75s-.41-.36-.16-.73a5.9,5.9,0,0,1,1.15-1.19.51.51,0,0,0,.19-.51,5.67,5.67,0,0,0-.1-.57c0-.23.06-.35.3-.35a7.89,7.89,0,0,1,2.26.35c.2,0,.11.22.1.34,0,.7-.1,1.39-.16,2.08a.42.42,0,0,0,.18.4l2,1.78L133.11,69a1,1,0,0,0,0-.54c-.27-1.66-.48-3.33-.84-5-.09-.4,0-.5.41-.52a10.17,10.17,0,0,1,2,.19c.19,0,.26.11.25.31-.09,1.81,0,3.63-.07,5.45,0,.67,0,1.34,0,2l-.06,1.17c0,.23-.14.25-.31.2a1.09,1.09,0,0,1-.62-.51,2.15,2.15,0,0,1-.36-1.12c0-.1,0-.2-.13-.22a3.84,3.84,0,0,1-1.73-.78l-2.08-1.34Z"/><path class="cls-10" d="M152.47,62.62c.7,0,.7,0,.69.62a5.51,5.51,0,0,1-.39,1.55c-.05.13-.15.15-.28.16-.87,0-1.74,0-2.62,0a.43.43,0,0,0-.45.3c-.18.53-.19.53.35.7l2.91.94c.12,0,.23.08.24.25.1,1.27.19,2.55.3,3.82,0,.3-.09.38-.36.42-1,.18-2,.41-3,.55a12.42,12.42,0,0,1-2.72.26,3.17,3.17,0,0,0-.75.06c-.15,0-.22,0-.2-.21.05-.45.07-.89.1-1.33,0-.62.11-1.24.17-1.85,0-.08,0-.2.09-.22s.16.07.21.14a2.26,2.26,0,0,1,.46,1c.06.34.13.68.18,1,0,.15.07.17.21.15a35.72,35.72,0,0,0,3.81-.9c.17,0,.15-.12.12-.24-.08-.41-.17-.81-.23-1.22a.38.38,0,0,0-.34-.36c-1.45-.31-2.9-.61-4.32-1-.24-.08-.25-.17-.18-.37.47-1.26.94-2.52,1.4-3.79a.42.42,0,0,1,.44-.31c1.17-.06,2.35-.1,3.52-.12C152.05,62.66,152.29,62.6,152.47,62.62Z"/><path class="cls-10" d="M164.54,67.78c.4-.7.78-1.35,1.15-2,.52-.91,1.06-1.81,1.66-2.66.34-.48.6-.5,1-.06a5,5,0,0,1,.7,1.4.28.28,0,0,1-.08.27c-1.1,1.49-2.09,3.06-3.1,4.61a.56.56,0,0,0,0,.72c.07.1.17.21.09.34s-.22.11-.34.11-.24,0-.32,0c-.25-.15-.37,0-.51.18-1,1.43-2,2.86-3,4.3-.75,1.07-1.49,2.15-2.32,3.16-.06.07-.12.2-.22.16s-.1-.17-.1-.28a2.61,2.61,0,0,1,.35-1.19c.61-1.25,1.38-2.4,2.1-3.59s1.5-2.49,2.27-3.73a.33.33,0,0,0-.05-.42c-.23-.31-.48-.59-.72-.88-1-1.25-2.08-2.46-3-3.75-.06-.09-.12-.18-.17-.27-.12-.25,0-.44.23-.57a6.5,6.5,0,0,1,.86-.25l.17,0c.24-.06.49-.3.71-.16s.24.4.36.62C162.94,65.09,163.7,66.42,164.54,67.78Z"/><path class="cls-10" d="M123,63.08a10,10,0,0,1,1.81.28c.13,0,.18.08.17.21,0,.66-.07,1.32-.11,2,0,.5,0,1-.05,1.51-.06.73,0,1.47-.08,2.21,0,.91-.12,1.82-.17,2.72,0,.19-.1.21-.24.18a1.2,1.2,0,0,1-.82-.84,7.49,7.49,0,0,1-.33-1.88c-.13-.83-.22-1.67-.33-2.5s-.21-1.67-.32-2.5c0-.3-.09-.59-.11-.89s0-.48.44-.48Z"/><path class="cls-10" d="M156.23,63.78c-.06,1.43-.1,2.85-.17,4.27,0,.85-.09,1.69-.11,2.53,0,.48-.08,1-.11,1.45,0,.18-.13.16-.25.14a1.24,1.24,0,0,1-.81-.81,5.31,5.31,0,0,1-.28-1.48c-.18-1.29-.35-2.59-.51-3.88-.11-.84-.22-1.67-.31-2.51,0-.35,0-.4.39-.41a11.33,11.33,0,0,1,1.93.25C156.32,63.38,156.24,63.59,156.23,63.78Z"/><path class="cls-10" d="M125,59.87V62c0,.34-.08.41-.41.35a1.11,1.11,0,0,1-.91-.8c-.42-1.27-.81-2.54-1.22-3.82-.08-.23,0-.31.22-.32a8,8,0,0,1,.85,0l1.3.11c.2,0,.17.14.17.27v2.12Z"/></g><g id="Destroy"><path class="cls-10" d="M63.82,101.18V82.25h8.31c6.1,0,9.89,2.84,9.89,9.07,0,7.12-4,9.86-10,9.86ZM70,96.76h1.31c2.9,0,4.47-1.53,4.47-5.1,0-4-1.29-5-4.6-5H70Z"/><path class="cls-10" d="M84.57,101.18V82.25H100v4.41H90.78v2.71h7.81v4.42H90.78v3h9.59v4.42Z"/><path class="cls-10" d="M113.26,87.74a1.67,1.67,0,0,0-.89-1.29,3.54,3.54,0,0,0-1.61-.34c-1.36,0-2,.39-2,1.08,0,2.84,10.89,1.08,10.89,8,0,4.39-3.66,6.52-8.86,6.52-5,0-8.26-2.92-8.39-6.34h5.94a2.17,2.17,0,0,0,1,1.5,3.43,3.43,0,0,0,1.76.47c1.55,0,2.57-.5,2.57-1.39,0-2.87-10.88-.9-10.88-8.13,0-4,3.47-6,8.2-6,5.26,0,7.65,2.68,8.1,6Z"/><path class="cls-10" d="M121.36,82.25h17.36v5h-5.58v14h-6.2v-14h-5.58Z"/><path class="cls-10" d="M147.34,94.58v6.6h-6.2V82.25h8.94c6.31,0,8.39,1.7,8.39,5.39,0,2.18-1,4-3.18,4.62,2,.74,3.2,1.21,3.2,5,0,2.47-.08,3.31.66,3.31v.58h-6.28a12.21,12.21,0,0,1-.32-3.32c0-2.47-.42-3.28-3.31-3.28Zm0-4.16h2.45c1.92,0,2.94-.47,2.94-1.79s-1-2-2.49-2h-2.9Z"/><path class="cls-10" d="M180.87,91.61c0,6.44-4.34,10.07-9.94,10.07C165,101.68,161,98,161,91.55c0-5.94,4-9.8,9.91-9.8C177.69,81.75,180.87,86.61,180.87,91.61Zm-13.64,0c0,2.41.73,5.44,3.7,5.44,2.69,0,3.74-2.32,3.74-5.44,0-2.58-1-5.32-3.79-5.24S167.23,89.21,167.23,91.61Z"/><path class="cls-10" d="M195.23,101.18H189V94.29l-7.05-12h6.94l3.26,6.41,3.26-6.41h6.84l-7.05,11.93Z"/></g></svg>