<svg id="Layer_1" data-name="Layer 1" xmlns="http://www.w3.org/2000/svg" xmlns:xlink="http://www.w3.org/1999/xlink" viewBox="0 0 806 598.9"><defs><style>.cls-1{fill:none;}.cls-2{fill:#b3b3b3;}.cls-3{fill:#092c45;}.cls-4{clip-path:url(#clip-path);}.cls-5{opacity:0.17;}.cls-6{fill:#1f3f56;}.cls-7{fill:#29475d;}.cls-8{fill:#3d586c;}.cls-9{fill:#2e4c61;}.cls-10{fill:#5a7282;}.cls-11{fill:#0e3049;}.cls-12{fill:#10324b;}.cls-13{fill:#15374e;}.cls-14{fill:#355266;}.cls-15{fill:#224158;}.cls-16{fill:#1d3d54;}.cls-17{fill:#2b4a5f;}.cls-18{fill:#304e63;}.cls-19{fill:#335065;}.cls-20{fill:#1a3b52;}.cls-21{fill:#0b2e47;}.cls-22{fill:#13344c;}.cls-23{fill:#627888;}.cls-24{fill:#3f5a6e;}.cls-25{fill:#27455b;}.cls-26{fill:#244359;}.cls-27{fill:#738795;}.cls-28{fill:#587081;}.cls-29{fill:#8293a0;}.cls-30{fill:#5f7686;}.cls-31{fill:#385468;}.cls-32{fill:#183950;}.cls-33{fill:#425d70;}.cls-34{fill:#7a8d9b;}.cls-35{fill:#708593;}.cls-36{fill:#556d7f;}.cls-37{fill:#4b6577;}.cls-38{fill:#536b7d;}.cls-39{fill:#9dabb5;}.cls-40{fill:#697e8e;}.cls-41{fill:#476174;}.cls-42{fill:#50697b;}.cls-43{fill:#b5c0c7;}.cls-44{fill:#aeb9c2;}.cls-45{fill:#93a2ad;}.cls-46{fill:#d8dde1;}.cls-47{fill:#7d8f9c;}.cls-48{fill:#899aa6;}.cls-49{fill:#3a566a;}.cls-50{fill:#a6b3bc;}.cls-51{fill:#95a4af;}.cls-52{fill:#7f919e;}.cls-53{fill:#8496a2;}.cls-54{fill:#5d7484;}.cls-55{fill:#6e8391;}.cls-56{fill:#647a8a;}.cls-57{fill:#fdfdfd;}.cls-58{fill:#3cbbdb;}.cls-59{fill:#70cddd;}.cls-60{opacity:0.06;}.cls-61{fill:#fff;}.cls-62{fill:#082435;}.cls-63{fill:#121212;}.cls-64{opacity:0.1;}.cls-64,.cls-69{isolation:isolate;}.cls-65{fill:#1f1f1f;}.cls-66{fill:#231f20;}.cls-67{fill:#10111a;}.cls-68{fill:#1a1a1a;}.cls-69{opacity:0.25;}.cls-70{opacity:0.12;}.cls-71{fill:#0b0b0f;}.cls-72{fill:#080808;}.cls-73{fill:url(#SVGID_6_);}.cls-74{fill:#0f0f0f;}.cls-75{fill:#f66;}.cls-76{fill:#7cb2e8;}.cls-77{fill:#ff69f8;}.cls-78{fill:#40e2a0;}.cls-79{fill:#050505;stroke:#000;stroke-miterlimit:10;stroke-width:2px;}.cls-80{fill:#f2f2f2;}.cls-81{fill:#0a0a0a;}.cls-82{opacity:0.08;}.cls-83{fill:#ccc;}</style><clipPath id="clip-path"><path class="cls-1" d="M801.3,418.6c-2.9-15.5-17.7-102.5-32-144.6-9.4-27.7-13.1-53-17-64.9-12-35.7-33-65.7-33-65.7s-9.5-13.1-10.1-16.3-4.7-8.6-4.7-8.6-17.4-5.7-62.3-5.7-53.7,5-53.7,5a22.51,22.51,0,0,1-5.9,4.8c-3.5,1.8-11.7,1.7-11.7,1.7H537.5a1,1,0,0,0-.9.3,5.3,5.3,0,0,0-.6,2H269.9a7.13,7.13,0,0,0-.6-2,1.06,1.06,0,0,0-.9-.3H235s-8.2.2-11.7-1.7a20.51,20.51,0,0,1-5.9-4.8s-8.8-5-53.7-5-62.3,5.7-62.3,5.7-4.1,5.3-4.7,8.6-10.1,16.3-10.1,16.3-21,30-33,65.7c-4,11.9-7.7,37.2-17,64.9C22.3,316.1,7.5,403.1,4.6,418.6.3,441.8,0,508.8,0,508.8s4.5,53.4,36.2,74.9,56.7,14,56.7,14,33.1-8.2,57.8-41.9,56.6-129.2,56.6-129.2a24.5,24.5,0,0,1,5.7-5.3,15.79,15.79,0,0,1,6.3-2.6l183.7.1,183.7-.1a15.79,15.79,0,0,1,6.3,2.6,24.5,24.5,0,0,1,5.7,5.3s31.9,95.4,56.6,129.2,57.8,41.9,57.8,41.9,25,7.5,56.7-14S806,508.8,806,508.8,805.7,441.8,801.3,418.6Z"/></clipPath><pattern id="SVGID_6_" data-name="SVGID 6 " width="71" height="71" patternTransform="matrix(0.1, 0, 0, -0.1, -34858.05, 3459.33)" patternUnits="userSpaceOnUse" viewBox="0 0 71 71"><rect class="cls-1" width="71" height="71"/><rect class="cls-1" width="71" height="71"/><rect class="cls-1" width="71" height="71"/><rect class="cls-1" width="71" height="71"/><polygon class="cls-1" points="0 71 71 71 71 0 0 0 0 71"/><polygon class="cls-1" points="0 71 71 71 71 0 0 0 0 71"/><path class="cls-2" d="M41.8,35.5a6.3,6.3,0,1,0-6.3,6.3A6.27,6.27,0,0,0,41.8,35.5Z"/></pattern></defs><title>luminosity_base</title><g id="SVGID"><path class="cls-3" d="M801.3,418.6c-2.9-15.5-17.7-102.5-32-144.6-9.4-27.7-13.1-53-17-64.9-12-35.7-33-65.7-33-65.7s-9.5-13.1-10.1-16.3-4.7-8.6-4.7-8.6-17.4-5.7-62.3-5.7-53.7,5-53.7,5a22.51,22.51,0,0,1-5.9,4.8c-3.5,1.8-11.7,1.7-11.7,1.7H537.5a1,1,0,0,0-.9.3,5.3,5.3,0,0,0-.6,2H269.9a7.13,7.13,0,0,0-.6-2,1.06,1.06,0,0,0-.9-.3H235s-8.2.2-11.7-1.7a20.51,20.51,0,0,1-5.9-4.8s-8.8-5-53.7-5-62.3,5.7-62.3,5.7-4.1,5.3-4.7,8.6-10.1,16.3-10.1,16.3-21,30-33,65.7c-4,11.9-7.7,37.2-17,64.9C22.3,316.1,7.5,403.1,4.6,418.6.3,441.8,0,508.8,0,508.8s4.5,53.4,36.2,74.9,56.7,14,56.7,14,33.1-8.2,57.8-41.9,56.6-129.2,56.6-129.2a24.5,24.5,0,0,1,5.7-5.3,15.79,15.79,0,0,1,6.3-2.6l183.7.1,183.7-.1a15.79,15.79,0,0,1,6.3,2.6,24.5,24.5,0,0,1,5.7,5.3s31.9,95.4,56.6,129.2,57.8,41.9,57.8,41.9,25,7.5,56.7-14S806,508.8,806,508.8,805.7,441.8,801.3,418.6Z"/></g><g class="cls-4"><g class="cls-5"><polygon class="cls-6" points="812.54 547.57 812.54 534.89 784.13 547.57 812.54 547.57"/><polygon class="cls-7" points="779.06 547.57 733.33 522.8 749.04 547.57 779.06 547.57"/><polygon class="cls-8" points="718.22 547.57 733.33 522.8 716.78 547.57 718.22 547.57"/><polygon class="cls-9" points="749.04 547.57 733.33 522.8 718.22 547.57 749.04 547.57"/><polygon class="cls-10" points="686.45 547.57 656.11 505.11 634.51 547.57 686.45 547.57"/><polygon class="cls-11" points="606.17 547.57 656.11 505.11 579.82 498.1 570.6 547.57 606.17 547.57"/><polygon class="cls-12" points="634.51 547.57 656.11 505.11 606.17 547.57 634.51 547.57"/><polygon class="cls-11" points="567.53 547.57 579.82 498.1 503.56 520.69 515.3 547.57 567.53 547.57"/><polygon class="cls-13" points="570.6 547.57 579.82 498.1 567.53 547.57 570.6 547.57"/><polygon class="cls-3" points="470.6 547.57 503.56 520.69 396.44 547.38 396.48 547.57 470.6 547.57"/><polygon class="cls-11" points="515.3 547.57 503.56 520.69 470.6 547.57 515.3 547.57"/><polygon class="cls-12" points="397.03 547.57 403.17 547.57 394.38 504.86 396.44 547.38 397.03 547.57"/><polygon class="cls-9" points="351.92 547.57 394.38 504.86 344.4 547.57 351.92 547.57"/><polygon class="cls-13" points="403.17 547.57 394.38 504.86 344.4 547.57 403.17 547.57"/><polygon class="cls-14" points="782.18 547.57 809.27 507.27 791.39 439.2 781.46 547.57 782.18 547.57"/><polygon class="cls-15" points="784.13 547.57 812.54 534.89 812.54 511.79 809.27 507.27 782.18 547.57 784.13 547.57"/><path class="cls-16" d="M733.33,522.8l58.06-83.6L715.9,490.51l17.43,32.29Z"/><polygon class="cls-16" points="779.06 547.57 781.46 547.57 791.39 439.2 733.33 522.8 733.33 522.8 779.06 547.57"/><polygon class="cls-17" points="705.95 547.57 715.9 490.51 643.04 470.86 688.99 547.57 705.95 547.57"/><polygon class="cls-18" points="716.78 547.57 733.33 522.8 715.9 490.51 705.95 547.57 716.78 547.57"/><path class="cls-11" d="M656.11,505.1,643,470.86l-65.68-6.45,78.75,40.7Z"/><polygon class="cls-19" points="656.11 505.11 686.45 547.57 688.99 547.57 643.04 470.86 656.11 505.1 656.11 505.11"/><path class="cls-3" d="M579.82,498.09l-2.46-33.68-18,37,20.47-3.29Z"/><path class="cls-20" d="M579.82,498.09l-2.46-33.68,78.75,40.7-76.3-7Z"/><path class="cls-11" d="M503.56,520.69l55.78-19.3-62.87-33.91,7.09,53.21Z"/><path class="cls-21" d="M503.56,520.69l55.78-19.3,20.47-3.29-76.25,22.59Z"/><path class="cls-22" d="M396.45,547.38l100-79.9L380.34,484.74l16.1,62.64Z"/><path class="cls-22" d="M396.45,547.38l100-79.9,7.09,53.21L396.44,547.38Z"/><path class="cls-13" d="M394.39,504.86l-14.05-20.12-83.57.16,97.61,20Z"/><path class="cls-22" d="M394.39,504.86l-14.05-20.12,16.1,62.64-2.06-42.52Z"/><polygon class="cls-13" points="324.72 547.57 301.11 464.32 296.77 484.9 322.14 547.57 324.72 547.57"/><polygon class="cls-12" points="351.92 547.57 394.38 504.86 296.77 484.9 322.14 547.57 351.92 547.57"/><polygon class="cls-23" points="812.54 417.66 812.54 399.18 702.07 383.55 791.39 439.2 791.39 439.2 812.54 417.66"/><polygon class="cls-24" points="812.54 489.24 812.54 417.66 791.4 439.2 809.27 507.27 812.54 489.24"/><path class="cls-17" d="M715.89,490.52l-13.82-107,8,72.88,5.86,34.08Z"/><path class="cls-16" d="M715.89,490.52l-13.82-107,89.32,55.65L715.9,490.51Z"/><path class="cls-25" d="M643,470.86l67-14.43L592.77,412.55,643,470.86Z"/><path class="cls-20" d="M643,470.86l67-14.43,5.86,34.08L643,470.86Z"/><path class="cls-8" d="M577.35,464.41l15.42-51.86-32.65,9.8,17.24,42.06Z"/><path class="cls-26" d="M577.35,464.41l15.42-51.86L643,470.86l-65.68-6.45Z"/><path class="cls-11" d="M559.34,501.39l.78-79-36.53,24.26,35.75,54.78Z"/><path class="cls-11" d="M559.34,501.39l.78-79,17.24,42.06-18,37Z"/><path class="cls-15" d="M496.47,467.47l27.12-20.86-115.18-16,88.06,36.84Z"/><path class="cls-12" d="M496.47,467.47l27.12-20.86,35.75,54.78-62.87-33.91Z"/><path class="cls-22" d="M380.34,484.74l28.07-54.1-88.87-48,60.8,102.14Z"/><path class="cls-27" d="M380.34,484.74l28.07-54.1,88.06,36.84L380.34,484.74Z"/><path class="cls-7" d="M296.77,484.9l22.77-102.3,60.8,102.14-83.57.16Z"/><polygon class="cls-25" points="812.54 392.53 812.54 379.08 730.09 346.46 812.54 392.53"/><path class="cls-17" d="M702.07,383.55l28-37.09,7.35,49.33-35.37-12.24Z"/><polygon class="cls-7" points="702.07 383.55 812.54 399.18 812.54 392.53 730.09 346.46 702.07 383.55 702.07 383.55"/><path class="cls-20" d="M710,456.44l27.4-60.65L679.38,333,710,456.43Z"/><path class="cls-9" d="M710,456.44l27.4-60.65-35.37-12.24,8,72.88Z"/><path class="cls-28" d="M592.76,412.55,679.38,333,613.6,403l-20.83,9.54Z"/><path class="cls-23" d="M592.76,412.55,679.38,333,710,456.43,592.77,412.55Z"/><path class="cls-29" d="M560.12,422.36,613.6,403l-64.43-4.9,11,24.24Z"/><path class="cls-30" d="M560.12,422.36,613.6,403l-20.83,9.54-32.65,9.8Z"/><path class="cls-8" d="M523.59,446.62l25.58-48.51L459.8,380.53l63.79,66.08Z"/><path class="cls-31" d="M523.59,446.62l25.58-48.51,11,24.24-36.53,24.26Z"/><path class="cls-17" d="M408.4,430.63l51.4-50.1-31.3-33.22-20.09,83.33Z"/><path class="cls-32" d="M408.4,430.63l51.4-50.1,63.79,66.08-115.18-16Z"/><path class="cls-18" d="M319.55,382.6l109-35.29L308.79,375.45l10.75,7.15Z"/><path class="cls-33" d="M319.55,382.6l109-35.29-20.09,83.33-88.87-48Z"/><polygon class="cls-14" points="812.54 331.92 812.54 294.53 775.35 281.81 812.54 331.92"/><path class="cls-25" d="M730.09,346.46l45.26-64.65-16.44,3.1-28.82,61.55Z"/><polygon class="cls-25" points="812.54 331.92 775.35 281.81 730.09 346.46 812.54 379.08 812.54 331.92"/><path class="cls-16" d="M737.44,395.78l21.47-110.87-84.77,3.45,63.3,107.43Z"/><path class="cls-9" d="M737.44,395.78l21.47-110.87-28.82,61.55,7.35,49.33Z"/><path class="cls-30" d="M679.37,333l-5.23-44.67-23.57-6.44L679.38,333Z"/><path class="cls-26" d="M679.37,333l-5.23-44.67,63.3,107.43L679.38,333Z"/><path class="cls-34" d="M613.6,403l37-121.09-98.64,27.29L613.6,403Z"/><path class="cls-34" d="M613.6,403l37-121.09L679.38,333,613.6,403Z"/><path class="cls-10" d="M549.17,398.11l2.76-88.9-86.71,29.55,83.95,59.35Z"/><path class="cls-35" d="M549.17,398.11l2.76-88.9L613.6,403l-64.43-4.9Z"/><path class="cls-28" d="M459.81,380.53l5.41-41.77L453.8,327.7l6,52.83Z"/><path class="cls-23" d="M459.81,380.53l5.41-41.77,83.95,59.35L459.8,380.53Z"/><path class="cls-23" d="M428.51,347.31,453.8,327.7,314.55,317.11l114,30.2Z"/><path class="cls-36" d="M428.51,347.31,453.8,327.7l6,52.83-31.3-33.22Z"/><path class="cls-19" d="M308.79,375.45l5.76-58.34L307,337.66l1.76,37.79Z"/><path class="cls-9" d="M308.79,375.45l5.76-58.34,114,30.2L308.79,375.45Z"/><polygon class="cls-14" points="775.35 281.81 812.54 258.11 812.54 247.68 791.25 253.49 775.35 281.81 775.35 281.81"/><polygon class="cls-8" points="812.54 294.53 812.54 258.11 775.35 281.81 775.35 281.81 812.54 294.53"/><path class="cls-29" d="M758.91,284.91l32.34-31.42L666,241.87l92.91,43Z"/><path class="cls-10" d="M758.91,284.91l32.34-31.42-15.9,28.32-16.44,3.1Z"/><path class="cls-37" d="M674.14,288.36,666,241.87l-18,27.81,26.13,18.68Z"/><path class="cls-38" d="M674.14,288.36,666,241.87l92.91,43-84.77,3.45Z"/><path class="cls-24" d="M650.56,281.92,648,269.68l-72.53-50.42,75.09,62.66Z"/><path class="cls-37" d="M650.56,281.92,648,269.68l26.13,18.68-23.57-6.44Z"/><path class="cls-31" d="M551.93,309.22l23.55-90-97.37,35.51,73.82,54.44Z"/><path class="cls-37" d="M551.93,309.22l23.55-90,75.09,62.66-98.64,27.29Z"/><path class="cls-27" d="M465.22,338.76l12.89-84,11.57-11.86-24.46,95.85Z"/><path class="cls-39" d="M465.22,338.76l12.89-84,73.82,54.44-86.71,29.55Z"/><path class="cls-28" d="M453.8,327.7l35.88-84.79L362.37,260.12,453.8,327.7Z"/><path class="cls-30" d="M453.8,327.7l35.88-84.79-24.46,95.85L453.8,327.7Z"/><path class="cls-40" d="M314.55,317.11l47.82-57L308,220.72l6.55,96.39Z"/><path class="cls-41" d="M314.55,317.11l47.82-57L453.8,327.7,314.55,317.11Z"/><path class="cls-42" d="M307,337.67l1-117,6.55,96.39L307,337.66Z"/><polygon class="cls-7" points="812.54 179.61 722.5 213.79 791.25 253.49 812.54 217.11 812.54 179.61"/><polygon class="cls-7" points="812.54 217.11 791.25 253.49 791.25 253.49 812.54 247.68 812.54 217.11"/><path class="cls-8" d="M666,241.88l56.49-28.09-70,19.29L666,241.87Z"/><path class="cls-31" d="M666,241.88l56.49-28.09,68.75,39.7L666,241.87Z"/><path class="cls-36" d="M648,269.68l4.47-36.6L569.24,201,648,269.68Z"/><path class="cls-16" d="M648,269.68l4.47-36.6L666,241.87l-18,27.81Z"/><path class="cls-12" d="M575.48,219.26,569.24,201l-42.55-.13,48.79,18.38Z"/><path class="cls-15" d="M575.48,219.26,569.24,201,648,269.68l-72.53-50.42Z"/><path class="cls-43" d="M478.11,254.77l48.58-53.89-82.34,13.59,33.76,40.3Z"/><path class="cls-9" d="M478.11,254.77l48.58-53.89,48.79,18.38-97.37,35.51Z"/><path class="cls-44" d="M489.69,242.91l-45.34-28.44L403.93,225l85.75,17.92Z"/><path class="cls-35" d="M489.69,242.91l-45.34-28.44,33.76,40.3,11.57-11.86Z"/><path class="cls-45" d="M362.37,260.13,403.93,225l-90-10.4,48.41,45.53Z"/><path class="cls-46" d="M362.37,260.13,403.93,225l85.75,17.92L362.37,260.12Z"/><path class="cls-47" d="M308,220.72l6-6.13,14.81-24.42L308,220.72Z"/><path class="cls-48" d="M308,220.72l6-6.13,48.41,45.53L308,220.72Z"/><polygon class="cls-49" points="812.54 168.92 812.54 165.98 800.66 164.76 812.54 168.92"/><path class="cls-10" d="M722.5,213.8l78.16-49L708,178.36l14.46,35.43Z"/><polygon class="cls-49" points="812.54 179.61 812.54 165.98 800.66 164.76 722.52 213.79 812.54 179.61"/><path class="cls-6" d="M652.48,233.08,708,178.36,604.43,117.8l48.05,115.28Z"/><path class="cls-6" d="M652.48,233.08,708,178.36l14.46,35.43-70,19.29Z"/><path class="cls-11" d="M569.24,201l35.19-83.21,1.16,11.44L569.24,201Z"/><path class="cls-20" d="M569.24,201l35.19-83.21,48.05,115.28L569.24,201Z"/><path class="cls-15" d="M526.68,200.88l78.91-71.64-118.3,33.2,39.4,38.44Z"/><path class="cls-32" d="M526.68,200.88l78.91-71.64L569.24,201l-42.55-.13Z"/><path class="cls-10" d="M444.34,214.48l43-52-76.77-20.25,33.83,72.28Z"/><path class="cls-42" d="M444.34,214.48l43-52,39.4,38.44-82.34,13.59Z"/><path class="cls-50" d="M403.93,225l6.59-82.8L368,146.76,403.93,225Z"/><path class="cls-51" d="M403.93,225l6.59-82.8,33.83,72.28L403.93,225Z"/><path class="cls-47" d="M314,214.59l54-67.83-69.33,27.63,15.3,40.2Z"/><path class="cls-52" d="M314,214.59l54-67.83L403.93,225l-90-10.4Z"/><path class="cls-53" d="M328.76,190.19l-30.1-15.8,15.3,40.2,14.81-24.42Z"/><polygon class="cls-17" points="812.54 142.27 812.54 100.61 789.57 113.95 812.54 142.27"/><path class="cls-16" d="M800.66,164.76,789.57,114l-5.29,8.44,16.38,42.37Z"/><polygon class="cls-24" points="812.54 168.92 812.54 142.27 789.57 113.95 800.66 164.76 800.66 164.76 812.54 168.92"/><path class="cls-20" d="M708,178.36l76.24-56-90-14.81L708,178.36Z"/><path class="cls-12" d="M708,178.36l76.24-56,16.38,42.37L708,178.36Z"/><path class="cls-6" d="M604.43,117.82l89.88-10.24L619.71,86.2l-15.28,31.6Z"/><path class="cls-26" d="M604.43,117.82l89.88-10.24L708,178.36,604.43,117.8Z"/><path class="cls-16" d="M605.59,129.24l14.12-43-41.47,32.41,27.35,10.63Z"/><path class="cls-15" d="M605.59,129.24l14.12-43-15.28,31.6,1.16,11.44Z"/><path class="cls-7" d="M487.29,162.44l90.95-43.83-84.87-30.8-6.08,74.63Z"/><path class="cls-6" d="M487.29,162.44l90.95-43.83,27.35,10.63-118.3,33.2Z"/><path class="cls-54" d="M410.52,142.19l82.85-54.38-94.63,13.77,11.78,40.61Z"/><path class="cls-17" d="M410.52,142.19l82.85-54.38-6.08,74.63-76.77-20.25Z"/><path class="cls-28" d="M368,146.76l30.75-45.18-41.51-23L368,146.76Z"/><path class="cls-37" d="M368,146.76l30.75-45.18,11.78,40.61L368,146.76Z"/><path class="cls-28" d="M298.66,174.39l58.57-95.82L327.65,109l-29,65.35Z"/><path class="cls-40" d="M298.66,174.39l58.57-95.82L368,146.76l-69.33,27.63Z"/><polygon class="cls-7" points="812.54 22.44 767.97 32.77 789.57 113.95 789.57 113.95 812.54 46.59 812.54 22.44"/><polygon class="cls-6" points="812.54 46.59 789.57 113.94 812.54 100.61 812.54 46.59"/><path class="cls-6" d="M784.28,122.4,768,32.78,688.66,71.26l95.62,51.13Z"/><path class="cls-16" d="M784.28,122.4,768,32.78,789.57,114l-5.29,8.44Z"/><path class="cls-8" d="M694.31,107.58l-5.65-36.32-73.54-55.4,79.19,91.72Z"/><path class="cls-26" d="M694.31,107.58l-5.65-36.32,95.62,51.13-90-14.81Z"/><path class="cls-7" d="M619.7,86.2l-4.58-70.34L564.4-5.58,619.71,86.2Z"/><path class="cls-9" d="M619.7,86.2l-4.58-70.34,79.19,91.72L619.71,86.2Z"/><path class="cls-20" d="M578.24,118.61,564.4-5.58l-57,56.22,70.85,68Z"/><path class="cls-20" d="M578.24,118.61,564.4-5.58,619.71,86.2l-41.47,32.41Z"/><path class="cls-36" d="M493.37,87.8l14-37.16L443.94,21l49.43,66.78Z"/><path class="cls-15" d="M493.37,87.8l14-37.16,70.85,68-84.87-30.8Z"/><path class="cls-37" d="M398.74,101.58,443.94,21,408.11,40.84l-9.37,60.74Z"/><path class="cls-41" d="M398.74,101.58,443.94,21l49.43,66.78-94.63,13.77Z"/><path class="cls-54" d="M357.24,78.57l50.87-37.73-55,3.21,4.11,34.52Z"/><path class="cls-38" d="M357.24,78.57l50.87-37.73-9.37,60.74-41.51-23Z"/><path class="cls-40" d="M327.64,109l25.48-65,4.11,34.52L327.65,109Z"/><polygon class="cls-54" points="812.54 5.48 812.54 -11.26 774.42 -30.41 767.97 32.77 812.54 5.48"/><polygon class="cls-38" points="812.54 5.48 767.96 32.77 767.97 32.77 812.54 22.44 812.54 5.48"/><path class="cls-38" d="M688.66,71.26,774.42-30.41,674-22.28l14.66,93.54Z"/><path class="cls-33" d="M688.66,71.26,774.42-30.41,768,32.78,688.66,71.26Z"/><path class="cls-47" d="M615.12,15.85,674-22.28,640.07-39.79l-25,55.65Z"/><path class="cls-30" d="M615.12,15.85,674-22.28l14.66,93.54-73.54-55.4Z"/><path class="cls-42" d="M564.4-5.58l75.67-34.21-25,55.65L564.4-5.58Z"/><path class="cls-19" d="M507.38,50.64l85.46-95.29-66,34.38L507.39,50.64Z"/><path class="cls-15" d="M507.38,50.64l85.46-95.29L564.4-5.58l-57,56.22Z"/><path class="cls-27" d="M443.94,21l82.94-31.3-66.31-19.4L443.94,21Z"/><path class="cls-55" d="M443.94,21l82.94-31.3L507.39,50.64,443.94,21Z"/><path class="cls-27" d="M408.11,40.85l52.46-70.52-94.8,10.2,42.34,60.31Z"/><path class="cls-56" d="M408.11,40.85l52.46-70.52L443.94,21,408.11,40.84Z"/><path class="cls-53" d="M353.12,44.05l12.65-63.52,42.34,60.31-55,3.21Z"/></g><path class="cls-3" d="M85.26,86.15c126.48-22.67,249.12,61.26,271,190.56,21.07,124.49-61.22,245.07-188.7,267.81-123.83,22.09-247-58.23-270.17-188.73C-125.1,229-40.71,109.22,85.26,86.15Zm-162.42,288c2,7,3.94,14,7.25,20.51a19.07,19.07,0,0,0,.65,2.27,198.18,198.18,0,0,0,35.47,57.38c42.07,47.26,94.81,72,158.13,73.31a205.41,205.41,0,0,0,82.88-15.83c34.5-14.15,63.42-35.8,86.27-65.23,32.74-42.16,47.91-90,45-143.42a211.33,211.33,0,0,0-94.4-164.56c-42.16-27.84-88.57-39.24-138.79-34.4a205.53,205.53,0,0,0-72.1,20.64Q-31,156.6-63.24,220.58C-80.67,255.15-87.79,291.91-85,330.53A193.26,193.26,0,0,0-77.16,374.1Z"/><path class="cls-57" d="M-77.16,374.1A193.26,193.26,0,0,1-85,330.53c-2.78-38.62,4.34-75.38,21.77-109.95Q-31,156.7,33.2,124.77a205.53,205.53,0,0,1,72.1-20.64c50.22-4.84,96.63,6.56,138.79,34.4a211.33,211.33,0,0,1,94.4,164.56c2.91,53.43-12.26,101.26-45,143.42-22.85,29.43-51.77,51.08-86.27,65.23a205.41,205.41,0,0,1-82.88,15.83C61,526.24,8.28,501.52-33.79,454.26a198.18,198.18,0,0,1-35.47-57.38,19.07,19.07,0,0,1-.65-2.27c1.38-1,2.79-1.95,4.14-3A673.65,673.65,0,0,0,4.53,328c30.62-31.64,59.07-65,81.91-102.87,10.33-17.1,19.28-34.87,23.85-54.5,2.92-12.55,5.22-25.18,2.51-38.14-2.55-12.23-11.13-19.15-23.66-19.42-10.58-.22-20.57,2.37-30.27,6A185.87,185.87,0,0,0-6.76,161.07c-18.9,18.74-30.84,40.39-27.18,68.3,3.35,25.62,14,46.86,35.71,61.78,2.14,1.47,2.41,2.23.63,4.26C-22.32,323.46-49.44,349.07-77.16,374.1ZM180,123.57l-.69-.18.39.63a13.69,13.69,0,0,0,1,1.39c16.57,18.6,22.68,40.45,20.44,65-1.67,18.35-7.43,35.5-15.17,52.06-13.64,29.2-32.32,55.07-53.12,79.48-36,42.23-77.28,78.79-121.18,112.54-.95.73-2.16,1.25-2.61,2.67.77.3,1.49.61,2.22.86a258.73,258.73,0,0,0,41,10A297,297,0,0,0,130,450.72a271.59,271.59,0,0,0,65.47-14.51c18.05-6.5,35.18-14.73,50.59-26.24,34.08-25.45,51.29-59.56,51.84-102.05.26-20.72-3.89-40.66-11-60.06-5.62-15.4-13.47-29.77-20.54-44.5-2.51-5.21-5.11-10.48-5.24-16.44-.15-6.39,4.18-9.21,9.91-6.59,1.17.54,2.29,1.19,3.85,2a16.56,16.56,0,0,0-5.83-9.51c-6.22-5.41-13.79-7.22-21.74-7.76a9,9,0,0,1-6.52-2.81A163.44,163.44,0,0,0,203.25,133C195.92,128.92,188.38,125.23,180,123.57ZM291.18,418.85q-55.92,55.88-133.43,69.92C106.22,498.07,56.42,491.64,8.59,470a120.63,120.63,0,0,0,36.87,24.58c35.23,15.38,72,18,109.6,12.71a209.78,209.78,0,0,0,73.18-25c20.37-11.34,38.23-25.74,52.19-44.62C284.73,431.85,288.66,425.79,291.18,418.85Zm-323.9-33.2c1.37.5,2-.42,2.67-.87a600,600,0,0,0,67-48.8c26.77-22.71,51-47.7,70.09-77.4,14.48-22.57,25.08-46.7,28.92-73.43,2.41-16.8,2.06-33.5-3.58-50.63a22.83,22.83,0,0,0-.43,3.08c.4,18.64-4,36.33-10.64,53.55-11.54,30-28.75,56.78-48.07,82.26-29.21,38.5-62.64,73-98.54,105.28C-27.8,380.92-30.63,382.82-32.72,385.65Zm-.93.79-.1.18h.21Z"/><path class="cls-58" d="M-77.16,374.1c27.72-25,54.84-50.64,79.56-78.69,1.78-2,1.51-2.79-.63-4.26C-19.89,276.23-30.59,255-33.94,229.37c-3.66-27.91,8.28-49.56,27.18-68.3a185.87,185.87,0,0,1,65.63-41.94c9.7-3.68,19.69-6.27,30.27-6,12.53.27,21.11,7.19,23.66,19.42,2.71,13,.41,25.59-2.51,38.14-4.57,19.63-13.52,37.4-23.85,54.5C63.6,263,35.15,296.37,4.53,328a673.65,673.65,0,0,1-70.3,63.61c-1.35,1-2.76,2-4.14,3C-73.22,388.08-75.2,381.1-77.16,374.1Z"/><path class="cls-3" d="M180,123.57c8.34,1.66,15.88,5.35,23.21,9.46a163.44,163.44,0,0,1,37.57,29.22,9,9,0,0,0,6.52,2.81c7.95.54,15.52,2.35,21.74,7.76a16.56,16.56,0,0,1,5.83,9.51c-1.56-.81-2.68-1.46-3.85-2-5.73-2.62-10.06.2-9.91,6.59.13,6,2.73,11.23,5.24,16.44,7.07,14.73,14.92,29.1,20.54,44.5,7.08,19.4,11.23,39.34,11,60.06-.55,42.49-17.76,76.6-51.84,102.05-15.41,11.51-32.54,19.74-50.59,26.24A271.59,271.59,0,0,1,130,450.72,297,297,0,0,1,52.25,448a258.73,258.73,0,0,1-41-10c-.73-.25-1.45-.56-2.22-.86.45-1.42,1.66-1.94,2.61-2.67,43.9-33.75,85.18-70.31,121.18-112.54,20.8-24.41,39.48-50.28,53.12-79.48,7.74-16.56,13.5-33.71,15.17-52.06,2.24-24.53-3.87-46.38-20.44-65a13.69,13.69,0,0,1-1-1.39ZM47.53,429a7,7,0,0,0,1.13.59,24.75,24.75,0,0,0,2.67.54,293.63,293.63,0,0,0,69.73.69c29.59-3.27,58.12-10.66,85.11-23.49,16.83-8,32.6-17.6,45.69-31.12,18.8-19.42,26.68-42.6,24.09-69.47-1.25-12.91-4.71-25.24-9.09-37.36-5.52-15.29-12.73-29.66-23.41-42.07-4.12-4.77-8.72-9-14.77-11.27s-9.69-.13-11.31,6c-.75,2.86-1.4,5.75-2.29,8.56a244.3,244.3,0,0,1-35,69.89c-1,1.37-2,2.43-1,4.51,7.71,15.55,9,31.83,4.53,48.47-2.91,10.85-7.85,20.69-17.52,27.24-8.1,5.49-17.46,3.66-23.12-4.27-4-5.58-5.2-12-5.54-18.69-.07-1.52.15-3.06-.62-4.88C107.71,379.27,78.67,405.2,47.53,429ZM180.38,325.28a24.08,24.08,0,0,0-3.06-8.27c-1.61-2.58-3.63-4.81-7-4.74s-5.43,2.36-6.57,5.19c-3.28,8.24-2.84,16.3,2.32,23.66,3.66,5.21,9.24,4.71,12.27-.89C181,335.41,181,330.2,180.38,325.28ZM147.29,361a10.81,10.81,0,0,0,3.23,6.88c2.52,2.36,5.5,1.67,6.82-1.52,1.64-4,0-11.11-3.15-13.94-2.33-2.06-5-1.56-6.44,1.2C146.55,356,146.7,358.49,147.29,361Z"/><path class="cls-3" d="M291.18,418.85c-2.52,6.94-6.45,13-10.75,18.81-14,18.88-31.82,33.28-52.19,44.62a209.78,209.78,0,0,1-73.18,25c-37.56,5.28-74.37,2.67-109.6-12.71A120.63,120.63,0,0,1,8.59,470c47.83,21.69,97.63,28.12,149.16,18.82S253.9,456.1,291.18,418.85Z"/><path class="cls-59" d="M-32.72,385.65c2.09-2.83,4.92-4.73,7.4-7C10.58,346.46,44,311.91,73.22,273.41c19.32-25.48,36.53-52.23,48.07-82.26,6.62-17.22,11-34.91,10.64-53.55a22.83,22.83,0,0,1,.43-3.08c5.64,17.13,6,33.83,3.58,50.63C132.1,211.88,121.5,236,107,258.58,88,288.28,63.7,313.27,36.93,336a600,600,0,0,1-67,48.8C-30.76,385.23-31.35,386.15-32.72,385.65Z"/><path class="cls-3" d="M179.74,124l-.39-.63.69.18Z"/><path class="cls-58" d="M47.53,429c31.14-23.82,60.18-49.75,89.33-76.17.77,1.82.55,3.36.62,4.88.34,6.67,1.55,13.11,5.54,18.69,5.66,7.93,15,9.76,23.12,4.27,9.67-6.55,14.61-16.39,17.52-27.24,4.44-16.64,3.18-32.92-4.53-48.47-1-2.08,0-3.14,1-4.51a244.3,244.3,0,0,0,35-69.89c.89-2.81,1.54-5.7,2.29-8.56,1.62-6.09,5.37-8.14,11.31-6s10.65,6.5,14.77,11.27c10.68,12.41,17.89,26.78,23.41,42.07,4.38,12.12,7.84,24.45,9.09,37.36,2.59,26.87-5.29,50.05-24.09,69.47-13.09,13.52-28.86,23.11-45.69,31.12-27,12.83-55.52,20.22-85.11,23.49a293.63,293.63,0,0,1-69.73-.69,24.75,24.75,0,0,1-2.67-.54A7,7,0,0,1,47.53,429Z"/><path class="cls-57" d="M180.38,325.28c.57,4.92.57,10.13-2,15-3,5.6-8.61,6.1-12.27.89-5.16-7.36-5.6-15.42-2.32-23.66,1.14-2.83,3.16-5.13,6.57-5.19s5.37,2.16,7,4.74A24.08,24.08,0,0,1,180.38,325.28Z"/><path class="cls-57" d="M147.29,361c-.59-2.55-.74-5,.46-7.38,1.4-2.76,4.11-3.26,6.44-1.2,3.19,2.83,4.79,10,3.15,13.94-1.32,3.19-4.3,3.88-6.82,1.52A10.81,10.81,0,0,1,147.29,361Z"/></g><g class="cls-60"><path class="cls-61" d="M36.6,276c9.4-27.7,13.1-53,17-64.9,12-35.7,33-65.7,33-65.7s9.5-13.1,10.1-16.3,4.7-8.6,4.7-8.6,17.4-5.7,62.3-5.7,53.7,5,53.7,5a22.51,22.51,0,0,0,5.9,4.8c3.5,1.8,11.7,1.7,11.7,1.7h33.4a1,1,0,0,1,.9.3,5.3,5.3,0,0,1,.6,2H536.1a7.13,7.13,0,0,1,.6-2,1.06,1.06,0,0,1,.9-.3H571s8.2.2,11.7-1.7a20.51,20.51,0,0,0,5.9-4.8s8.8-5,53.7-5,62.3,5.7,62.3,5.7,4.1,5.3,4.7,8.6,10.1,16.3,10.1,16.3,21,30,33,65.7c4,11.9,7.7,37.2,17,64.9,14.3,42.1,29.1,129.1,32,144.6,3.9,20.9,4.6,77.3,4.7,88.3v-.1s-.3-66.9-4.7-90.1c-2.9-15.5-17.7-102.5-32-144.6-9.4-27.7-13.1-53-17-64.9-12-35.7-33-65.7-33-65.7s-9.5-13.1-10.1-16.3-4.7-8.6-4.7-8.6-17.4-5.7-62.3-5.7-53.7,5-53.7,5a22.51,22.51,0,0,1-5.9,4.8c-3.5,1.8-11.7,1.7-11.7,1.7H537.6a1,1,0,0,0-.9.3,5.3,5.3,0,0,0-.6,2H269.9a7.13,7.13,0,0,0-.6-2,1.06,1.06,0,0,0-.9-.3H235s-8.2.2-11.7-1.7a20.51,20.51,0,0,1-5.9-4.8s-8.8-5-53.7-5-62.3,5.7-62.3,5.7-4.1,5.3-4.7,8.6-10.1,16.3-10.1,16.3-21,30-33,65.7c-4,11.9-7.7,37.2-17,64.9C22.3,316.2,7.5,403.2,4.6,418.7.3,441.8,0,508.8,0,508.8v.1c.1-10.9.7-67.4,4.7-88.3C7.6,405.2,22.3,318.1,36.6,276Z"/></g><path class="cls-62" d="M351.2,360a76.5,76.5,0,0,0-153,0,13.4,13.4,0,0,0,.1,2c0,.7-.1,1.3-.1,2a76.5,76.5,0,0,0,153,0,13.4,13.4,0,0,0-.1-2C351.1,361.3,351.2,360.6,351.2,360Z"/><circle class="cls-3" cx="274.7" cy="356" r="73"/><circle cx="274.7" cy="356" r="51.5"/><path class="cls-62" d="M607.8,360a76.5,76.5,0,0,0-153,0,13.4,13.4,0,0,0,.1,2c0,.7-.1,1.3-.1,2a76.5,76.5,0,0,0,153,0,13.4,13.4,0,0,0-.1-2A14.08,14.08,0,0,0,607.8,360Z"/><circle class="cls-3" cx="531.3" cy="356" r="73"/><circle cx="531.3" cy="356" r="51.5"/><path class="cls-63" d="M534.8,128a6.57,6.57,0,0,0-6.5-5.6H277.7a6.48,6.48,0,0,0-6.5,5.6,14.77,14.77,0,0,0-.1,2.1V257.5a16.09,16.09,0,0,0,16.1,16.1H518.8a16.09,16.09,0,0,0,16.1-16.1V130.1A7.41,7.41,0,0,0,534.8,128Z"/><circle class="cls-64" cx="652.3" cy="244.8" r="94.3"/><circle class="cls-64" cx="153.7" cy="244.8" r="94.3"/><path class="cls-65" d="M230.4,254.1l9.5-8.9a1.15,1.15,0,0,0,0-1.7l-9.5-8.9a1.12,1.12,0,0,0-1.9.8v17.8A1.15,1.15,0,0,0,230.4,254.1Z"/><path class="cls-65" d="M145,169.8h17.8a1.12,1.12,0,0,0,.8-1.9l-8.9-9.5a1.15,1.15,0,0,0-1.7,0l-8.9,9.5A1.17,1.17,0,0,0,145,169.8Z"/><path class="cls-65" d="M77.5,234.6,68,243.5a1.15,1.15,0,0,0,0,1.7l9.5,8.9a1.12,1.12,0,0,0,1.9-.8V235.5A1.13,1.13,0,0,0,77.5,234.6Z"/><path class="cls-65" d="M162.8,318.8H145a1.12,1.12,0,0,0-.8,1.9l8.9,9.5a1.15,1.15,0,0,0,1.7,0l8.9-9.5A1.17,1.17,0,0,0,162.8,318.8Z"/><path class="cls-66" d="M105.2,544.5c-40.5-2.8-75.8-20.3-87.3-30.5S.4,482.4.4,482.4c-.4,15-.4,26.3-.4,26.3s4.5,53.4,36.2,74.9,56.7,14,56.7,14,33.1-8.2,57.8-41.9a192.08,192.08,0,0,0,14.1-23.8C164.7,531.9,145.6,547.2,105.2,544.5Z"/><path class="cls-63" d="M105.2,544.5c-40.5-2.8-75.8-20.3-87.3-30.5S.4,482.4.4,482.4c-.4,15-.4,26.3-.4,26.3s4.5,53.4,36.2,74.9,56.7,14,56.7,14,33.1-8.2,57.8-41.9a192.08,192.08,0,0,0,14.1-23.8C164.7,531.9,145.6,547.2,105.2,544.5Z"/><path d="M90,592.5c-12.5,1.8-31.3-2-45.1-7.7-13.6-5.7-24-16.4-24-16.4a63.12,63.12,0,0,0,15.3,15.2c31.7,21.5,56.7,14,56.7,14s11.7-2.9,26.3-12.3A168.54,168.54,0,0,1,90,592.5Z"/><path class="cls-66" d="M700.8,544.5c40.5-2.8,75.8-20.3,87.3-30.5s17.5-31.5,17.5-31.5c.4,15,.4,26.3.4,26.3s-4.5,53.4-36.2,74.9-56.7,14-56.7,14-33.1-8.2-57.8-41.9A192.08,192.08,0,0,1,641.2,532C641.3,531.9,660.4,547.2,700.8,544.5Z"/><path class="cls-63" d="M700.8,544.5c40.5-2.8,75.8-20.3,87.3-30.5s17.5-31.5,17.5-31.5c.4,15,.4,26.3.4,26.3s-4.5,53.4-36.2,74.9-56.7,14-56.7,14-33.1-8.2-57.8-41.9A192.08,192.08,0,0,1,641.2,532C641.3,531.9,660.4,547.2,700.8,544.5Z"/><path d="M716,592.5c12.5,1.8,31.3-2,45.1-7.7,13.6-5.7,24-16.4,24-16.4a63.12,63.12,0,0,1-15.3,15.2c-31.7,21.5-56.7,14-56.7,14s-11.7-2.9-26.3-12.3A168.54,168.54,0,0,0,716,592.5Z"/><path d="M240.5,143.5A12.5,12.5,0,0,1,253,156v18.3a12.5,12.5,0,0,1-25,0V156a12.5,12.5,0,0,1,12.5-12.5m0-1.7A14.25,14.25,0,0,0,226.3,156v18.3a14.2,14.2,0,0,0,28.4,0V156a14.19,14.19,0,0,0-14.2-14.2Z"/><path class="cls-67" d="M240.5,143.5A12.5,12.5,0,0,0,228,156v18.3a12.5,12.5,0,0,0,25,0V156A12.5,12.5,0,0,0,240.5,143.5Z"/><path d="M565.5,143.5A12.5,12.5,0,0,1,578,156v18.3a12.5,12.5,0,0,1-12.5,12.5h0A12.5,12.5,0,0,1,553,174.3V156a12.5,12.5,0,0,1,12.5-12.5h0m0-1.7A14.25,14.25,0,0,0,551.3,156v18.3a14.2,14.2,0,0,0,28.4,0V156a14.19,14.19,0,0,0-14.2-14.2Z"/><path class="cls-67" d="M565.5,143.5A12.5,12.5,0,0,0,553,156v18.3a12.5,12.5,0,0,0,25,0V156A12.5,12.5,0,0,0,565.5,143.5Z"/><path class="cls-68" d="M141.2,247.2c1.4-2,1.2-2.9,1.2-2.9s.2-.9-1.2-2.9-15-13.6-15.7-14-28.5-2.2-31.4,1.3-2.6,15.6-2.6,15.6-.3,12.1,2.6,15.6,30.7,1.7,31.4,1.3S139.8,249.2,141.2,247.2Z"/><path class="cls-69" d="M141.2,247.2c1.4-2,1.2-2.9,1.2-2.9s.2-.9-1.2-2.9c-.9-1.3-6.9-6.6-11.2-10.3a27.84,27.84,0,0,0-3.4,13.2,26.73,26.73,0,0,0,3.4,13.2C134.3,253.8,140.3,248.5,141.2,247.2Z"/><path class="cls-68" d="M151,231.6c2,1.4,2.9,1.2,2.9,1.2s.9.2,2.9-1.2,13.6-15,14-15.7,2.2-28.5-1.3-31.4-15.6-2.6-15.6-2.6-12.1-.3-15.6,2.6-1.7,30.7-1.3,31.4S149,230.2,151,231.6Z"/><path class="cls-69" d="M151,231.6c2,1.4,2.9,1.2,2.9,1.2s.9.2,2.9-1.2c1.3-.9,6.6-6.9,10.3-11.2a27.84,27.84,0,0,0-13.2-3.4,26.73,26.73,0,0,0-13.2,3.4C144.5,224.7,149.7,230.7,151,231.6Z"/><path class="cls-68" d="M213.7,228.8c-2.9-3.5-30.7-1.7-31.4-1.3s-14.3,12-15.7,14-1.2,2.9-1.2,2.9-.2.9,1.2,2.9,15,13.6,15.7,14,28.5,2.2,31.4-1.3,2.6-15.6,2.6-15.6S216.6,232.3,213.7,228.8Z"/><path class="cls-69" d="M177.9,231.2c-4.3,3.7-10.3,9-11.2,10.3-1.4,2-1.2,2.9-1.2,2.9s-.2.9,1.2,2.9c.9,1.3,6.9,6.6,11.2,10.3a27.32,27.32,0,0,0,0-26.4Z"/><path class="cls-68" d="M156.8,257.1c-2-1.4-2.9-1.2-2.9-1.2s-.9-.2-2.9,1.2-13.6,15-14,15.7-2.2,28.5,1.3,31.4,15.6,2.6,15.6,2.6,12.1.3,15.6-2.6,1.7-30.7,1.3-31.4S158.8,258.5,156.8,257.1Z"/><path class="cls-69" d="M156.8,257.1c-2-1.4-2.9-1.2-2.9-1.2s-.9-.2-2.9,1.2c-1.3.9-6.6,6.9-10.3,11.2a27.84,27.84,0,0,0,13.2,3.4,26.73,26.73,0,0,0,13.2-3.4C163.4,264,158.1,258,156.8,257.1Z"/><circle cx="403" cy="316.4" r="4.1"/><circle cx="403" cy="295.5" r="4.1"/><circle cx="396.1" cy="305.7" r="4.1"/><circle cx="381.4" cy="305.7" r="4.1"/><circle cx="388.7" cy="316.4" r="4.1"/><circle cx="388.7" cy="295.5" r="4.1"/><circle cx="374.4" cy="295.5" r="4.1"/><circle cx="409.9" cy="305.7" r="4.1"/><circle cx="424.6" cy="305.7" r="4.1"/><circle cx="417.2" cy="316.4" r="4.1"/><circle cx="417.2" cy="295.5" r="4.1"/><circle cx="431.6" cy="295.5" r="4.1"/><g class="cls-70"><path class="cls-61" d="M403,319.5a4.19,4.19,0,0,1-4.1-3.6c0,.2-.1.3-.1.5a4.1,4.1,0,0,0,8.2,0,.9.9,0,0,0-.1-.5A3.85,3.85,0,0,1,403,319.5Z"/><path class="cls-61" d="M403,299.6a4.06,4.06,0,0,0,4.1-4.1.9.9,0,0,0-.1-.5,4.12,4.12,0,0,1-4.1,3.6,4.19,4.19,0,0,1-4.1-3.6c0,.2-.1.3-.1.5A4.44,4.44,0,0,0,403,299.6Z"/><path class="cls-61" d="M400.2,305.7a.9.9,0,0,0-.1-.5,4.12,4.12,0,0,1-4.1,3.6,4.19,4.19,0,0,1-4.1-3.6c0,.2-.1.3-.1.5a4.06,4.06,0,0,0,4.1,4.1A4.17,4.17,0,0,0,400.2,305.7Z"/><path class="cls-61" d="M385.4,305.2a4.12,4.12,0,0,1-4.1,3.6,4.19,4.19,0,0,1-4.1-3.6c0,.2-.1.3-.1.5a4.1,4.1,0,0,0,8.2,0C385.5,305.5,385.5,305.4,385.4,305.2Z"/><path class="cls-61" d="M388.8,319.5a4.19,4.19,0,0,1-4.1-3.6c0,.2-.1.3-.1.5a4.1,4.1,0,0,0,8.2,0,.9.9,0,0,0-.1-.5A3.85,3.85,0,0,1,388.8,319.5Z"/><path class="cls-61" d="M388.8,299.6a4.06,4.06,0,0,0,4.1-4.1.9.9,0,0,0-.1-.5,4.12,4.12,0,0,1-4.1,3.6,4.19,4.19,0,0,1-4.1-3.6c0,.2-.1.3-.1.5A4.37,4.37,0,0,0,388.8,299.6Z"/><path class="cls-61" d="M378.6,295.5a.9.9,0,0,0-.1-.5,4.12,4.12,0,0,1-4.1,3.6,4.19,4.19,0,0,1-4.1-3.6c0,.2-.1.3-.1.5a4.06,4.06,0,0,0,4.1,4.1A4.23,4.23,0,0,0,378.6,295.5Z"/><path class="cls-61" d="M414,305.2a4.12,4.12,0,0,1-4.1,3.6,4.19,4.19,0,0,1-4.1-3.6c0,.2-.1.3-.1.5a4.1,4.1,0,0,0,8.2,0C414.1,305.5,414,305.4,414,305.2Z"/><path class="cls-61" d="M424.6,308.8a4.19,4.19,0,0,1-4.1-3.6c0,.2-.1.3-.1.5a4.1,4.1,0,1,0,8.2,0,.9.9,0,0,0-.1-.5A3.72,3.72,0,0,1,424.6,308.8Z"/><path class="cls-61" d="M417.3,319.5a4.19,4.19,0,0,1-4.1-3.6c0,.2-.1.3-.1.5a4.1,4.1,0,0,0,8.2,0,.9.9,0,0,0-.1-.5A3.85,3.85,0,0,1,417.3,319.5Z"/><path class="cls-61" d="M417.3,299.6a4.06,4.06,0,0,0,4.1-4.1.9.9,0,0,0-.1-.5,4.12,4.12,0,0,1-4.1,3.6,4.19,4.19,0,0,1-4.1-3.6c0,.2-.1.3-.1.5A4.37,4.37,0,0,0,417.3,299.6Z"/><path class="cls-61" d="M431.6,298.6a4.19,4.19,0,0,1-4.1-3.6c0,.2-.1.3-.1.5a4.1,4.1,0,0,0,8.2,0,.9.9,0,0,0-.1-.5A3.85,3.85,0,0,1,431.6,298.6Z"/></g><path class="cls-71" d="M436.6,421H368.7c-2.8,0-4.6.6-4.6-2.2h0a5,5,0,0,1,5-5H437a5,5,0,0,1,5,5h0C442.1,421.5,439.4,421,436.6,421Z"/><path d="M408.3,418.8H371.8a.9.9,0,0,1-.9-.9h0a2,2,0,0,1,2-2h34.2a2,2,0,0,1,2,2h0A.77.77,0,0,1,408.3,418.8Z"/><path d="M430.5,419.6h-4.2a1.75,1.75,0,0,1-1.7-1.7h0a2.8,2.8,0,0,1,2.8-2.8h1.9a2.8,2.8,0,0,1,2.8,2.8h0A1.5,1.5,0,0,1,430.5,419.6Z"/><path class="cls-72" d="M530.4,124.3a1.9,1.9,0,0,0-1.9-1.9H277.4a1.9,1.9,0,0,0-1.9,1.9V253.5a15.62,15.62,0,0,0,15.6,15.6H514.9a15.62,15.62,0,0,0,15.6-15.6V130.4Z"/><g class="cls-70"><path class="cls-73" d="M275.5,253.5a15.62,15.62,0,0,0,15.6,15.6H514.9a15.62,15.62,0,0,0,15.6-15.6V147h-255Z"/></g><path class="cls-68" d="M709.9,271a26.3,26.3,0,1,1,26.3-26.3A26.33,26.33,0,0,1,709.9,271Z"/><path class="cls-74" d="M709.9,219.5a25.25,25.25,0,1,1-25.3,25.2,25.33,25.33,0,0,1,25.3-25.2m0-2a27.3,27.3,0,1,0,27.3,27.3,27.34,27.34,0,0,0-27.3-27.3Z"/><path class="cls-75" d="M709.9,225.9a18.9,18.9,0,1,0,18.9,18.9A18.95,18.95,0,0,0,709.9,225.9Zm0,34.9a16,16,0,1,1,16-16A16,16,0,0,1,709.9,260.8Z"/><path class="cls-68" d="M652.3,328.6a26.3,26.3,0,1,1,26.3-26.3A26.33,26.33,0,0,1,652.3,328.6Z"/><path class="cls-74" d="M652.3,277.1A25.3,25.3,0,1,1,627,302.4a25.33,25.33,0,0,1,25.3-25.3m0-2a27.3,27.3,0,1,0,27.3,27.3,27.34,27.34,0,0,0-27.3-27.3Z"/><polygon class="cls-76" points="666.7 290 664.7 288 652.3 300.4 640 288 638 290 650.3 302.4 638 314.7 640 316.7 652.3 304.4 664.7 316.7 666.7 314.7 654.3 302.4 666.7 290"/><path class="cls-68" d="M594.8,271a26.3,26.3,0,1,1,26.3-26.3A26.33,26.33,0,0,1,594.8,271Z"/><path class="cls-74" d="M594.7,219.5a25.25,25.25,0,1,1-25.3,25.2,25.33,25.33,0,0,1,25.3-25.2m0-2A27.3,27.3,0,1,0,622,244.8a27.34,27.34,0,0,0-27.3-27.3Z"/><path class="cls-77" d="M606.3,230.4H580.5V259h28.6V230.4Zm0,25.9h-23v-23h23Z"/><path class="cls-68" d="M652.3,213.5a26.3,26.3,0,1,1,26.3-26.3A26.33,26.33,0,0,1,652.3,213.5Z"/><path class="cls-74" d="M652.3,162A25.3,25.3,0,1,1,627,187.3,25.33,25.33,0,0,1,652.3,162m0-2a27.3,27.3,0,1,0,27.3,27.3A27.34,27.34,0,0,0,652.3,160Z"/><path class="cls-78" d="M668.3,195.2l-16-27.6-16,27.6-1.6,2.8h35.2Zm-16,0H639.6l12.7-21.9L665,195.2Z"/><circle class="cls-79" cx="403" cy="362" r="20.2"/><path class="cls-80" d="M404.1,368.6V355.8a1.33,1.33,0,0,1,.3-1,.57.57,0,0,1,.7-.2c.6.2.9.7.9,1.7v6.9a4.55,4.55,0,0,0,2.1.5,2.77,2.77,0,0,0,1.6-.5c1-.7,1.5-1.9,1.5-3.7a6.49,6.49,0,0,0-1.2-4.3,8.79,8.79,0,0,0-4.1-2.6c-1.3-.4-2.5-.8-3.6-1.1s-2-.5-2.9-.7V363h0v2.7h0v1.7h0v2.5h0v1.5l4.7,1.5v-3.6h0Z"/><path class="cls-80" d="M399,367.6l-1.7.6-.9.4-1.6.3-1.5-.2c-.3-.2-.4-.4-.2-.6s.2-.1.3-.2.3-.1.4-.2l1.1-.4,4.1-1.5v-2.7l-1.7.5-5.5,2-1,.4c-1.5.6-2.2,1.2-2.2,1.8.1.8,1,1.5,2.7,1.9a15.21,15.21,0,0,0,4.3.5,20.2,20.2,0,0,0,3.3-.3v-2.3Z"/><path class="cls-80" d="M414.8,365.3a12.88,12.88,0,0,0-2.5-.6,10.48,10.48,0,0,0-2.5-.1,26.6,26.6,0,0,0-2.8.3,15.25,15.25,0,0,0-2.6.8v2.8l3.9-1.4,1.6-.5,1.1-.3h1.4c.3.1.6.2.7.4s-.2.4-.8.6l-1.4.5-6.5,2.4v2.7l3.5-1.3,6.4-2.3.7-.4c1.5-.5,2.2-1.2,2.2-1.9S416.4,365.8,414.8,365.3Z"/><path class="cls-81" d="M697.2,109.9a2.14,2.14,0,0,0-1.1-1.9c-4.5-2.9-23.4-13.6-51.5-13.6-26.9,0-41.1,5.9-45.1,8a2.2,2.2,0,0,0-1.2,2s9.8-2.9,47.5-2.9S697.2,109.9,697.2,109.9Z"/><path class="cls-63" d="M697.1,116.8h0v-6.9s-13.7-8.4-51.4-8.4-47.5,2.9-47.5,2.9v11h0c7.7-1.3,21.2-2.6,44.1-2.6C670.8,112.9,688.2,115.2,697.1,116.8Z"/><path class="cls-81" d="M108.8,109.9a2.14,2.14,0,0,1,1.1-1.9c4.5-2.9,23.4-13.6,51.5-13.6,26.9,0,41.1,5.9,45.1,8a2.2,2.2,0,0,1,1.2,2s-9.8-2.9-47.5-2.9S108.8,109.9,108.8,109.9Z"/><path class="cls-63" d="M108.9,116.8h0v-6.9s13.7-8.4,51.4-8.4,47.5,2.9,47.5,2.9v11h0c-7.7-1.3-21.2-2.6-44.1-2.6C135.2,112.9,117.8,115.2,108.9,116.8Z"/><path class="cls-63" d="M697.2,90.8s-32.7-3.2-50.6-3.2S598.2,90,598.2,90s3.1-44.7,4.8-52,7.7-21.3,16.9-27.9S631.8,0,642.6,0,668,6.4,677.2,21.4,697.2,90.8,697.2,90.8Z"/><path class="cls-81" d="M598.7,83.2s26.1-4.4,49-4.4,47.9,4.4,47.9,4.4c1,4.7,1.6,7.6,1.6,7.6s-32.7-3.2-50.6-3.2S598.2,90,598.2,90,598.4,87.3,598.7,83.2Z"/><g class="cls-82"><path class="cls-61" d="M648.7,65.7l-3.2,2.6a6.71,6.71,0,0,0-2,4.5h9.8V70.2H647a6.71,6.71,0,0,1,2.1-1.9,12.47,12.47,0,0,0,2.7-2.1,4.77,4.77,0,0,0,1.3-3.3,4.22,4.22,0,0,0-1.4-3.3,5.13,5.13,0,0,0-3.5-1.2c-3.1,0-4.7,1.7-4.7,5h2.7q0-2.7,2.1-2.7a1.83,1.83,0,0,1,2,2.1C650.5,63.9,649.9,64.8,648.7,65.7Z"/><path class="cls-61" d="M631.1,67.2h3c1.5,0,2.3.6,2.4,1.9s.2,2.5.3,3.8h3.3v-.4c-.5-.2-.7-.7-.7-1.5a2.81,2.81,0,0,1,.1-.8v-.7a3.56,3.56,0,0,0-1.8-3.5,3.25,3.25,0,0,0,2.2-3.4,3.54,3.54,0,0,0-1.3-3,4.72,4.72,0,0,0-3.2-1h-7.3V72.9h3Zm0-6.2h3.7c1.4,0,2.1.6,2.1,1.9s-.8,1.9-2.3,1.9h-3.5Z"/></g><path class="cls-63" d="M108.8,90.8s32.7-3.2,50.6-3.2S207.7,90,207.7,90s-3.1-44.7-4.8-52S195.2,16.7,186,10.1,174.2,0,163.4,0,138,6.4,128.8,21.4,108.8,90.8,108.8,90.8Z"/><path class="cls-81" d="M207.3,83.2s-26.1-4.4-49-4.4-47.9,4.4-47.9,4.4c-1,4.7-1.6,7.6-1.6,7.6s32.7-3.2,50.6-3.2S207.7,90,207.7,90,207.6,87.3,207.3,83.2Z"/><g class="cls-82"><path class="cls-61" d="M173.3,65.7l-3.2,2.6a6.71,6.71,0,0,0-2,4.5h9.8V70.2h-6.2a6.71,6.71,0,0,1,2.1-1.9,12.47,12.47,0,0,0,2.7-2.1,4.77,4.77,0,0,0,1.3-3.3,4.22,4.22,0,0,0-1.4-3.3,5.13,5.13,0,0,0-3.5-1.2c-3.1,0-4.7,1.7-4.7,5h2.7q0-2.7,2.1-2.7a1.83,1.83,0,0,1,2,2.1C175.1,63.9,174.5,64.8,173.3,65.7Z"/><polygon class="cls-61" points="164.8 70.2 157.8 70.2 157.8 58.5 154.7 58.5 154.7 72.8 164.8 72.8 164.8 70.2"/></g><path class="cls-83" d="M547.6,134.6a4.11,4.11,0,0,1-8.2,0,3.82,3.82,0,0,1,4.1-3.8A3.76,3.76,0,0,1,547.6,134.6Zm-6.7,0a2.49,2.49,0,0,0,2.6,2.7,2.54,2.54,0,0,0,2.6-2.7,2.6,2.6,0,1,0-5.2,0Z"/><path class="cls-83" d="M548.9,131h3.8c2.4,0,2.9,1.3,2.9,2.2s-.5,2.2-2.9,2.2h-2.3v2.8h-1.5Zm1.5,3.4h2.2c.7,0,1.5-.3,1.5-1.2s-.7-1.2-1.5-1.2h-2.2Z"/><path class="cls-83" d="M556.1,131H563v1.1h-2.7v6.1h-1.5V132h-2.7Z"/><path class="cls-83" d="M564.1,131h1.5v7.2h-1.5Z"/><path class="cls-83" d="M575.1,134.6a4.11,4.11,0,0,1-8.2,0,3.82,3.82,0,0,1,4.1-3.8A3.76,3.76,0,0,1,575.1,134.6Zm-6.7,0a2.49,2.49,0,0,0,2.6,2.7,2.54,2.54,0,0,0,2.6-2.7,2.6,2.6,0,1,0-5.2,0Z"/><path class="cls-83" d="M576.5,131h1.6l3.9,5.3h0V131h1.4v7.2h-1.6l-3.9-5.3h0v5.3h-1.4Z"/><path class="cls-83" d="M586.2,135.8c0,1.1,1,1.5,2.2,1.5s1.8-.6,1.8-1.1a.89.89,0,0,0-.7-.9c-.6-.2-1.4-.3-2.6-.6-1.5-.3-1.9-1.1-1.9-1.8,0-1.5,1.6-2.1,3.1-2.1,1.8,0,3.3.8,3.3,2.3h-1.5c-.1-.9-.8-1.3-1.8-1.3-.7,0-1.6.2-1.6.9,0,.5.4.8,1,.9a21.46,21.46,0,0,1,2.5.6,2.07,2.07,0,0,1,1.7,1.8c0,1.6-1.7,2.3-3.4,2.3-2,0-3.5-.8-3.6-2.6h1.5Z"/><path class="cls-83" d="M222.2,135.8c0,1.1,1,1.5,2.2,1.5s1.8-.6,1.8-1.1a.89.89,0,0,0-.7-.9c-.6-.2-1.4-.3-2.6-.6-1.5-.3-1.9-1.1-1.9-1.8,0-1.5,1.6-2.1,3.1-2.1,1.8,0,3.3.8,3.3,2.3h-1.5c-.1-.9-.8-1.3-1.8-1.3-.7,0-1.6.2-1.6.9,0,.5.4.8,1,.9a21.46,21.46,0,0,1,2.5.6,2.07,2.07,0,0,1,1.7,1.8c0,1.6-1.7,2.3-3.4,2.3-2,0-3.5-.8-3.6-2.6h1.5Z"/><path class="cls-83" d="M228.9,131h1.5v2.9h3.9V131h1.5v7.2h-1.5V135h-3.9v3.2h-1.5Z"/><path class="cls-83" d="M239.9,131h1.6l3.3,7.2h-1.6l-.8-1.9H239l-.8,1.9h-1.5Zm-.5,4.3H242l-1.3-3.1h0Z"/><path class="cls-83" d="M245.6,131h4.1c1.9,0,2.8.7,2.8,1.9a1.77,1.77,0,0,1-1.4,1.8h0a1.44,1.44,0,0,1,1.3,1.5c0,.8.1,1.6.5,1.9h-1.6a2,2,0,0,1-.2-1.1c0-1.3-.3-1.9-1.7-1.9h-2.2v3h-1.5l-.1-7.1Zm1.5,3.2h2.5c1,0,1.5-.4,1.5-1.1,0-.9-.7-1.1-1.5-1.1h-2.4v2.2Z"/><path class="cls-83" d="M254.1,131h6.2v1.1h-4.7V134h4.3v1h-4.3v2.1h4.7v1.1h-6.2V131Z"/></svg>